<?xml version='1.0' encoding='utf-8'?>
<!-- Generator: imaengine 6.0   -->
<svg viewBox="0,0,1494,1440" xmlns:xlink="http://www.w3.org/1999/xlink" xmlns="http://www.w3.org/2000/svg" width="1494" height="1440" version="1.1">
<defs/>
<g id="layer0">
<path d="M0,0L1494,0L1494,1440L0,1440L0,0Z" fill="#f2e5e5"/>
</g>
<g id="layer1" opacity="0.8">
<path d="M101,1440C114.5,1436.5 147.3,1447 145,1432C131.9,1432.3 104.1,1425.8 101,1440ZM159,1440C163.4,1421.6 199.6,1431.4 199,1431C186.2,1415.8 164.4,1423.7 159,1440ZM207,1440C216.8,1427.2 248.9,1446.5 245,1433C234.2,1422.7 213.7,1432.7 207,1440ZM249,1440C287.8,1443.9 250.9,1427.7 258,1419C267.8,1407.6 278.7,1440.6 295,1427C315.9,1421.9 268.5,1421.2 270,1410C276,1408.8 300.9,1405.9 304,1405C324.5,1405.6 341.8,1410.2 351,1419C354.9,1414.8 337.7,1395.7 320,1400C297.7,1395.1 285.9,1400.1 268,1404C253.9,1408.6 243.4,1423.2 249,1440ZM663,1440C680.9,1444.6 735.6,1420.3 693,1428C688.6,1430.9 681.6,1433.9 677,1434C652.1,1412.6 672,1434.7 663,1440ZM725,1440C744.1,1440.4 756.2,1438.3 765,1431C754.9,1440.3 727.6,1427.2 725,1440ZM825,1440C840.1,1446 843.8,1424.1 835,1428C820.2,1429.2 814.1,1432.8 825,1440ZM915,1440C921.7,1428.9 956.8,1434.9 957,1427C942.4,1428.2 914.3,1419 915,1440ZM975,1440C1001.8,1413 958.6,1409.6 937,1410C913.3,1411.5 889.9,1401.7 864,1402C869.7,1412 906.3,1413.2 924,1418C945.5,1419.6 987.8,1408.8 975,1440ZM1068,1440C1075.4,1432 1084.8,1429.5 1101,1419C1097.2,1417.1 1073.2,1428.6 1068,1440ZM1194,1440C1233.8,1443 1189.7,1421.2 1179,1423C1137.1,1423.9 1196.2,1429 1194,1440ZM1276,1440C1301.1,1434.5 1334.1,1444.4 1323,1428C1307.9,1434.4 1263.9,1428.7 1276,1440ZM1441,1440C1453.1,1425.9 1489.1,1454.1 1492,1423C1470,1446.8 1446.8,1407.3 1441,1440ZM41,1438C70,1433.7 18.5,1424.2 14,1433C-20.6,1439.4 42.1,1429 41,1438ZM311,1438C322.6,1433.1 346.4,1433.5 352,1427C338.7,1426.4 313.3,1425.7 311,1438ZM781,1433C805.6,1435.7 828.6,1424.1 790,1424C765.5,1414.2 759.2,1420.6 781,1433ZM59,1432C77.4,1433.4 87.9,1426.8 100,1422C113,1418.2 131.1,1417.5 145,1416C159.4,1417.5 184.8,1404.9 154,1410C137.1,1411.1 121,1408.4 109,1405C96.2,1409.4 80.9,1411.2 68,1415C56.4,1422.5 93.2,1414.4 97,1413C128.3,1410.4 107,1417.9 91,1419C81.7,1423.2 58.4,1427.4 59,1432ZM590,1431C593.4,1410.2 666.9,1437.5 632,1418C625.1,1418.7 616.1,1417.8 612,1416C577.2,1425.2 605.6,1404.3 624,1409C651.9,1412.3 675.1,1410.3 699,1407C704.2,1410 712.7,1408.3 717,1410C725.1,1410 718.7,1416.4 713,1414C690.3,1421.7 727.4,1419.6 732,1415C752.8,1410 788.3,1410 793,1397C771.6,1402.1 741.4,1405.8 720,1405C696.2,1400 663.8,1404.8 641,1402C619.9,1403.1 583.3,1398.3 590,1431ZM1397,1431C1414.3,1431.5 1438.8,1418.6 1410,1422C1393,1421.4 1380.2,1416.2 1364,1414C1346.4,1415.1 1333.7,1403 1321,1415C1307.6,1418.2 1288.3,1412.1 1272,1415C1236,1417.3 1274.8,1421.6 1281,1423C1274.4,1419.1 1282.5,1419.3 1307,1420C1326.8,1418.6 1335.6,1415.4 1353,1420C1369.3,1423.3 1387.7,1422.9 1397,1431ZM993,1429C1012.4,1430.3 1026.6,1425.2 1044,1428C1057.2,1429.8 1091,1419.6 1058,1420C1042,1421.2 1022.7,1424 1008,1422C988.8,1423.8 977.4,1411.1 993,1429ZM434,1427C468.2,1426.5 458.8,1419.3 434,1420C408.1,1416.6 406.1,1427.3 434,1427ZM892,1427C915.9,1423.7 874.1,1416.3 866,1415C849.9,1413.1 830.3,1411.5 812,1411C784.6,1420.8 835.1,1416.8 842,1419C858.7,1422 879.3,1422.6 892,1427ZM1131,1424C1146,1425.7 1164,1423.1 1166,1416C1154.4,1415.2 1139.1,1420.5 1131,1424ZM369,1419C372.6,1417.8 381,1418 384,1418C411.5,1412.5 364.1,1415.6 363,1409C340.4,1385.7 356.7,1410.3 369,1419ZM484,1419C500.8,1421.7 522.1,1416.7 522,1411C511.6,1411.7 482.5,1409 484,1419ZM585,1419C583.1,1402 551.1,1411.1 536,1407C534.7,1422.6 576.3,1410.1 585,1419ZM1418,1419C1442.2,1418 1400.5,1407.8 1393,1410C1366.2,1412.5 1414.7,1414.4 1418,1419ZM1225,1418C1245.2,1420.8 1246.8,1412.7 1229,1411C1212.6,1405.7 1207.2,1417.6 1225,1418ZM529,1416C525.3,1405.5 512.7,1397.5 541,1405C580.5,1404.1 518.1,1400.8 551,1396C552.5,1390.1 523.9,1398.7 511,1397C490.7,1406.7 532.4,1405 529,1416ZM1436,1416C1454.3,1409.2 1489.8,1412.8 1490,1406C1473.6,1404.1 1434.4,1415.1 1436,1416ZM1031,1415C1043.9,1413.9 1087.6,1413.8 1078,1410C1066.3,1405.2 1028.3,1410.8 1031,1415ZM245,1414C264.3,1408.8 272.7,1387.5 299,1393C303.7,1395.7 313.5,1394.9 317,1395C353.5,1394.8 324.4,1386.4 304,1389C276.4,1382.2 264.1,1399.5 246,1406C231.2,1395.3 212.9,1389.8 186,1393C181.9,1395.2 173.8,1396.2 169,1396C138.3,1397.9 184.5,1388.2 187,1384C194.5,1385.4 200.4,1382.3 205,1383C184.4,1394.5 224.5,1381.6 235,1387C228.5,1403.2 266.3,1388.3 280,1384C277.4,1378.8 238.1,1385.4 221,1380C200.4,1370.8 179.1,1386.6 159,1388C137.2,1394.8 117.4,1396 97,1397C71.1,1395.6 57.8,1396.3 30,1392C18.7,1389.8 25.7,1397.6 30,1396C52.7,1402.9 6,1399.3 0,1396C10.6,1418.1 46.2,1395.1 59,1401C82.8,1412.7 104.3,1389.3 122,1401C147.9,1394.8 165.2,1406.3 187,1398C216.2,1390.1 230.6,1407.1 245,1414ZM1145,1414C1165.8,1412 1129.4,1396.6 1114,1398C1105.4,1402 1045.3,1400.3 1082,1396C1097.9,1392.4 1142.5,1396.6 1104,1388C1083.1,1389 1066.5,1396 1044,1393C1020.1,1390.7 1006.3,1397 983,1396C965.7,1400.1 940.2,1398.3 921,1400C900.8,1396.6 886,1392.9 866,1395C847,1392.9 828.4,1387.8 808,1387C823.7,1373.9 777.1,1390.2 767,1379C746.9,1380 789,1396.5 798,1391C821.5,1388.3 835.3,1402.3 855,1397C876.4,1398.9 896.9,1396 911,1404C930.5,1406.5 955.1,1403.4 973,1402C992.1,1405.1 1014.1,1396.4 1031,1402C1055.1,1398.6 1070.1,1405.3 1091,1405C1110.1,1410.7 1133.9,1403.2 1145,1414ZM189,1411C201.2,1411.8 243.8,1412 216,1405C206.1,1403.2 162.7,1404.5 189,1411ZM442,1410C454.6,1409.3 478.6,1409.3 480,1405C468,1402.2 447,1404.8 442,1410ZM1296,1409C1304.9,1402.6 1273.4,1399.5 1261,1401C1245.3,1401.3 1228.3,1401.6 1213,1398C1197.1,1398 1178.6,1397 1164,1395C1150.5,1397.5 1135,1391.8 1123,1387C1131.1,1392.8 1142.9,1403.7 1159,1401C1172.5,1395.3 1186.5,1409.4 1203,1405C1220.2,1404.2 1234.5,1409.2 1249,1406C1265.8,1410.3 1282.6,1404 1296,1409ZM376,1406C398.8,1404.6 428.2,1410.1 444,1402C467.4,1398.8 497,1398.7 453,1395C439.4,1404.5 408.1,1397.3 388,1401C358.4,1396 341.1,1399.8 376,1406ZM1357,1406C1370.3,1400.5 1391.2,1397.4 1413,1405C1431.1,1403.6 1459.7,1405.6 1477,1400C1519,1392.4 1458.1,1396.9 1449,1397C1425.7,1400.8 1404.4,1401.3 1384,1395C1366.9,1400.7 1345,1398.4 1326,1391C1323.1,1388.9 1320,1386 1315,1384C1286.2,1384.7 1321.6,1366.9 1298,1378C1294.2,1380 1288,1379.7 1281,1379C1253.3,1382.3 1300.9,1383.3 1307,1384C1322,1394.2 1336.9,1403.3 1357,1406ZM588,1401C605.8,1399.9 623.2,1390.8 641,1396C645,1392.1 615.5,1385.2 605,1382C588.3,1376.2 568.7,1383.1 552,1384C535,1387.8 512.5,1386.2 498,1388C491.3,1399.8 529.2,1388.1 538,1388C557.2,1391.5 573.3,1383.2 592,1384C627,1383.9 608.6,1399.9 587,1391C550,1385.5 575,1396.2 588,1401ZM1316,1401C1323.9,1394.2 1291.3,1384.9 1272,1386C1244.5,1390.9 1244.4,1365.7 1215,1373C1195.8,1368.3 1177.2,1362.9 1154,1361C1118.8,1356.3 1184.7,1358.4 1191,1356C1211.7,1356.1 1234,1351.4 1256,1356C1278.4,1357.6 1302.3,1359 1319,1364C1342.3,1360.7 1362.1,1362.8 1387,1362C1397.7,1367.5 1454.9,1370.2 1407,1371C1381.1,1364.9 1373.6,1371.8 1348,1371C1320.2,1370.5 1293.9,1369.1 1332,1377C1354.4,1375.4 1378.5,1375.5 1401,1374C1413.1,1375.9 1460.4,1377.6 1449,1369C1445.9,1369.2 1436.4,1374.4 1437,1370C1458,1366.7 1416.9,1364.7 1407,1364C1392,1357.5 1442.7,1362.4 1451,1365C1466.3,1363.6 1520.7,1362.2 1472,1360C1453.3,1365.7 1427.7,1358.5 1410,1356C1386.8,1357.7 1366.5,1360.4 1342,1357C1319.9,1362.5 1297.8,1352.6 1281,1352C1273.8,1347.7 1254.5,1344.5 1229,1346C1250.5,1344 1262.8,1331 1270,1316C1277.1,1299.4 1282.9,1281.2 1284,1258C1285.9,1241.2 1299.1,1213.5 1284,1203C1258.7,1196.6 1249.6,1215.5 1249,1238C1243.8,1255.7 1242.5,1279.7 1236,1296C1226.7,1303.8 1216.3,1323.5 1195,1321C1208.5,1315.2 1223.9,1302.6 1230,1288C1233.8,1267.7 1239.8,1249.7 1243,1229C1236.4,1219.9 1202.7,1228.6 1185,1224C1168.2,1219.4 1135.7,1205.1 1166,1225C1184.1,1244.3 1171.8,1242.6 1173,1270C1164.9,1289.3 1173.6,1313.8 1182,1325C1182.1,1337.4 1233.2,1348.8 1206,1347C1195.9,1344.2 1158,1328.8 1171,1338C1206.4,1351.3 1151.6,1343.4 1148,1334C1116.7,1336.6 1103,1321.9 1144,1328C1185.2,1332 1133.9,1314.9 1119,1323C1092.4,1340.1 1100,1332.8 1113,1311C1126,1296.8 1154.6,1307.7 1163,1316C1178.2,1340.4 1165.9,1286.1 1144,1297C1116,1297.1 1109.7,1290.4 1104,1315C1095.3,1338.2 1081.6,1346.5 1096,1315C1103.9,1299 1105.8,1275.5 1108,1256C1110,1251.8 1110.1,1245.9 1110,1240C1103.1,1215 1126.1,1226.1 1112,1218C1089.2,1210 1069.2,1221.5 1063,1235C1057.6,1224.9 1077.8,1207.2 1100,1211C1120.2,1212.7 1145.7,1208.6 1164,1207C1184.6,1211.6 1200.1,1220 1225,1218C1255.1,1225.2 1248.8,1193.5 1274,1197C1297.9,1202.2 1314.5,1190.5 1337,1190C1371.9,1175.6 1335.3,1175.6 1315,1180C1294.7,1183.7 1270.3,1183.3 1247,1184C1227.2,1187.7 1202.1,1187.9 1181,1189C1174,1192.1 1109,1193.7 1148,1194C1172.1,1194.9 1196.9,1194.4 1216,1191C1236,1189 1260.5,1185.6 1283,1189C1310.8,1195.1 1245.9,1189.8 1247,1200C1231.1,1205.3 1200.3,1209 1184,1202C1166.3,1195.8 1136.2,1203.9 1119,1200C1116,1200.2 1103.2,1202.7 1107,1198C1129.7,1189.8 1085.3,1199.7 1077,1194C1079.5,1191.3 1111.7,1194.5 1127,1189C1152.3,1190.1 1173.4,1187.1 1195,1185C1217.5,1183.7 1241.7,1182.7 1262,1181C1285.2,1180.2 1307.8,1178.8 1329,1176C1368.4,1175.7 1349.9,1164.5 1323,1171C1300.6,1172.9 1277.9,1174.2 1256,1176C1233.2,1177 1211,1180.1 1189,1180C1167.6,1181.5 1144.8,1185.4 1123,1184C1099.5,1192.6 1075,1188.6 1112,1181C1135,1180.4 1156.8,1178.2 1179,1176C1200.9,1174.8 1225.1,1173.7 1244,1171C1267.2,1170 1289.8,1168.5 1311,1166C1328.7,1159.2 1376.6,1174.8 1341,1161C1318.5,1157.4 1295.1,1162 1272,1162C1251.7,1164.6 1226.8,1165 1207,1167C1183.4,1167.5 1163.8,1172 1139,1171C1114.5,1170.1 1098.5,1179.5 1083,1186C1060.3,1187.2 1035.8,1186.7 1017,1191C1060.5,1197.1 1007.8,1199.7 991,1198C976.7,1201.3 919.8,1192 961,1194C976.6,1196.4 1036.7,1192.4 991,1191C968.9,1190 944.2,1190 921,1191C895.8,1194.5 877.3,1187.6 853,1189L781,1189C763.7,1183.8 734,1188.2 713,1186C691.2,1182.3 669.5,1190.7 646,1186L576,1186C556.7,1183 529.4,1183.7 507,1185C487.5,1192.3 462.3,1182.5 444,1188C426.7,1193.8 396.9,1188.1 376,1191C361.8,1193.3 302.7,1191.7 344,1186C367.6,1185.7 390.6,1184.8 414,1184L432,1184C472.6,1182.2 426,1177.8 439,1177L511,1177L582,1177C605.9,1178.2 631.6,1176.5 653,1179C676.1,1179.5 703.2,1177.8 722,1180C747.3,1179.5 770,1180.8 793,1181C815,1183.3 840.7,1183 862,1182C884.4,1185.1 910.8,1182.8 932,1185C955.8,1185.3 978.5,1187.9 1001,1186C1016.6,1187.4 1060.9,1181.1 1045,1176C1026.8,1181.4 1000.4,1180.3 978,1180C955.9,1178.8 933.3,1177.4 909,1177C886.3,1177 862.2,1175.7 839,1176C819.1,1172.9 790.7,1177.3 770,1173C745.6,1174.9 722.9,1172.3 702,1171L630,1171C607.3,1170.5 583.2,1169.3 560,1170L488,1170L417,1170C395.9,1172.1 370.6,1170.8 347,1171C321.8,1173.2 301,1168.7 286,1161C261.8,1136.4 293.9,1144.8 304,1158C320.3,1166.3 348.6,1163.4 369,1164C391.7,1163.6 415.3,1163.1 439,1163C464.5,1164.9 486.7,1161.7 509,1162C530.4,1159.6 556.6,1161.7 579,1161C588.6,1158.3 543,1156.3 528,1157C505.4,1158.1 482.4,1159.1 459,1159C438.1,1162.3 410.7,1160.2 389,1161C365.3,1161.2 341.3,1161.3 320,1158C304.2,1155.7 285.9,1134.2 280,1137C306.5,1124.7 303.8,1160.2 330,1154L401,1154L473,1154C495.4,1153.3 520.2,1152.8 542,1153C565.8,1153.6 589.1,1155.6 612,1154C661.2,1155.8 601.3,1158.4 591,1161C613.3,1163.1 638.6,1161.8 662,1162C683.9,1164 709.5,1163.8 730,1164C754.2,1163 778.1,1170 795,1161C818,1157.3 842.7,1161.9 864,1161C888.6,1160.4 909.4,1163.6 934,1162C957.5,1163 980.6,1165.2 1002,1164C1024.1,1167.6 1050.4,1165.3 1073,1166C1097.6,1166.7 1121.7,1165.4 1141,1163C1165.1,1162.9 1187.6,1161.4 1209,1159C1230.8,1157.1 1256.7,1157.8 1276,1155C1325,1156.1 1278.5,1149.5 1257,1152C1233.7,1152.2 1208.2,1152.4 1189,1149C1168.6,1147.4 1143.5,1150.4 1121,1150C1097.4,1151 1075.3,1147.7 1054,1146C1033.1,1144.1 1006.9,1146.3 988,1140C962.9,1138.1 943.9,1144.5 920,1143C897.3,1142.2 874.6,1141 849,1141C828.6,1144 796.9,1137.6 783,1145C777.2,1150.8 813.5,1145.7 833,1149C855.4,1150.7 880.2,1151.2 902,1150L974,1150C996.6,1152.2 1020.1,1154 1041,1154C1052.5,1156.5 1107.3,1156.5 1087,1159C1065,1158.9 1037.5,1161.2 1018,1158C993.2,1159.6 972.9,1155.9 947,1157C925.2,1156.1 900.6,1155.3 879,1154C854.2,1155.8 832.9,1153.1 808,1153C786.9,1149.8 771.7,1164.1 745,1158C724,1160.3 697.6,1160.1 676,1158C656.2,1155 633.1,1152.8 614,1149C592.7,1147.3 567.7,1148.3 543,1148C521.1,1147.4 493.6,1149.6 474,1146C451.1,1147.6 425,1145.4 403,1148L333,1148C307.8,1150.3 297.6,1132.2 307,1109C312.1,1090.8 316.9,1070.4 324,1055C330.7,1038.3 338.8,1022.3 348,1008C359.4,995.5 370.2,981 383,972C396.7,961.6 413.3,954.1 438,955C461.2,954.5 485.2,953.3 507,954C529.1,951.3 555.3,953.4 578,952C597.7,952.5 627.1,952 642,954C645.5,971 628.8,985.5 621,999C609.9,1011.4 603.5,1030.3 596,1045C583.5,1064.3 585.5,1088.2 597,1054C610,1042.9 614.8,1022.4 623,1009C631.9,993.7 641.4,979.1 649,963C660.9,951.1 668.8,933.7 681,924C705.6,900.5 687,910.9 668,921C649.2,926 624.8,926.9 604,928C562.8,934.7 627.3,930.4 637,933C619.5,939.3 592.3,936.6 574,933C555.6,928.2 530.5,934.6 506,932C483.8,932.9 459.8,934.2 437,933C394.2,940.7 444.1,939.6 462,938C484.6,936.8 510.3,937.2 532,937C558.2,935.4 577.2,940.4 601,939C621.4,942.8 653.1,939.9 663,938C653.6,950.3 620.7,948.3 603,945C582.2,942.3 554.7,944.5 533,943C511,942.7 486.4,941.1 464,943C441.7,944.8 411.5,939.9 399,950C388.2,962.4 373.8,972.1 361,983C350.7,996.5 338.5,1009.6 330,1023C321.1,1038.1 316.8,1057.8 308,1073C303.4,1091.9 298.3,1112.1 294,1130C293.9,1135.6 285.8,1133.5 280,1134C268.5,1158.8 280.6,1125.3 270,1121C274.3,1102 279,1081.4 285,1065C290.4,1046.8 299.4,1031.8 307,1015C317.1,1002 326.3,985.9 339,977C347.6,968 368.2,946.8 366,945C358.8,948.3 329,983.7 343,961C368.2,936.7 334.7,963.4 330,974C319.4,987 309,1001.9 300,1015C294.1,1033 283,1045.8 279,1065C271.7,1082 268.5,1104.2 263,1121C258.9,1144.4 267.4,1164.1 277,1176C286.8,1190.9 307.2,1195.7 327,1197C339.2,1196.8 325.7,1199.1 324,1200C303.5,1210.1 344.3,1200.8 353,1202L371,1202C404.4,1196.4 334.4,1201.7 372,1197C394.3,1198.2 421,1202 434,1197C425.3,1211.2 406.1,1217.3 381,1215C363.1,1216.4 322.8,1214.9 324,1213C339.4,1221.8 349.9,1236.6 348,1260C342.9,1277.4 342.5,1307.8 352,1320C360.8,1335.4 377,1344.5 396,1347C419.2,1346.6 424.6,1328.1 452,1332C472.2,1328.2 496.6,1327.2 516,1325C523,1325.7 526.9,1323.7 532,1323C560.8,1326.4 554.8,1325.2 532,1328C494.7,1335.3 560.3,1331.9 561,1333C581.4,1333.6 609.5,1332.1 627,1337C632.8,1337.8 635.7,1340.9 642,1339C676.7,1336 647.1,1332.4 633,1334C614.9,1329.5 590.7,1329.7 573,1323C554.1,1313.2 535.2,1318.9 513,1320C489.6,1320 468.2,1325.3 447,1324C451.8,1320.4 444.5,1323.8 441,1325C429.3,1331.7 450.2,1306.6 448,1298C458,1283.8 456.5,1258.3 460,1238C471.2,1214.4 463.5,1196.1 435,1204C422.9,1197.3 467.5,1195.6 483,1195C506.1,1196.5 533.7,1194.3 552,1197L624,1197C647.6,1197.8 671.6,1199 694,1198C715.3,1201.3 745.6,1195 757,1207C755.4,1220.8 752.2,1248.8 753,1266C757.2,1286.6 769.3,1298.6 781,1310C803.6,1316.8 826.6,1314.6 833,1298C841.7,1283.1 854.9,1272.4 860,1253C866.9,1236.9 854.4,1199 880,1203C902.1,1206.1 928.7,1203.5 950,1206C959.4,1222.5 990.8,1209 1002,1221C1007.4,1227.9 1068.8,1217.9 1044,1231C1017.9,1234.3 1003.4,1223.5 983,1221C936.8,1222.3 1008.6,1228.4 1001,1231C961.9,1220.2 993.8,1236.5 992,1257C997.3,1278.5 988.5,1304.3 995,1324C1002,1339.9 1014.8,1355 1027,1360C1015.2,1355.1 974.6,1353.6 974,1359C955.4,1357 932.8,1346.7 915,1352C898.5,1361 876.1,1362.6 856,1355C849.1,1356.3 846.2,1353.2 840,1352C803.9,1353.8 838.1,1355.4 849,1357C856,1357.6 859.9,1359.6 865,1360C853.6,1364.1 864.5,1364.6 880,1373C905.7,1375.5 914.1,1376.4 939,1377C964.9,1376.9 985.2,1379.6 1009,1377C1028.8,1368.2 1048.5,1376.3 1069,1377C1091.7,1377.7 1109.5,1389 1131,1382C1149.8,1390.8 1170.8,1383.4 1193,1386C1215.8,1388.6 1238.9,1383.8 1257,1389C1280.3,1390.4 1303.3,1392.8 1316,1401ZM685,1398C718.6,1401.2 694,1393.1 678,1392C659.4,1391 644.9,1386 672,1384C688.1,1385.5 702.6,1389.8 716,1391C733.8,1404.7 740.3,1389.4 720,1386C705.5,1383.3 689.3,1382.4 675,1379C660,1378.4 648.9,1380 632,1379C603.2,1376.4 642.6,1384.8 645,1388C654.2,1396.3 674.7,1394.6 685,1398ZM410,1396C434.7,1398.8 449.9,1388.1 469,1388C448.6,1385.9 427.7,1392.2 410,1396ZM759,1395C768.9,1382.1 732.2,1380.7 720,1377C712.9,1367.7 754.7,1377.1 765,1371C771.1,1372 777.4,1372.2 781,1370C815,1377.8 779,1366.8 804,1369C820,1372.3 863,1357.1 826,1360C819.7,1361.3 816,1359 810,1359C809.8,1365.8 803,1363.7 781,1365C761.6,1370.6 737.6,1364.5 720,1369C707.4,1376.9 662.3,1377.4 708,1379C730.3,1380 745.6,1386.9 759,1395ZM955,1395C965.1,1388.1 1020.2,1395.3 1005,1386C1027.5,1384.8 1050.6,1387 1071,1386C1119.4,1381.1 1067.7,1380.9 1051,1380C1027.8,1371.8 1008.8,1385.3 986,1383C962.5,1379.5 937.8,1386.2 916,1380C876.9,1375.8 964,1393.2 921,1387C907,1388.7 871.2,1373.2 891,1386C904.8,1396.6 935.2,1392.3 955,1395ZM381,1393C436.5,1393.9 349.2,1387.4 385,1386C407.8,1389.3 427.2,1375.1 443,1386C479.5,1378.7 392.2,1379.7 434,1375C454.9,1371.4 464,1392.8 487,1383C521.3,1384.2 513.9,1372.6 484,1377C451.3,1381.8 448.9,1370.7 482,1373C478.6,1368.7 444.3,1369.6 429,1368C408.4,1368.9 385.6,1367 370,1369C364,1370.3 359.2,1367 354,1368C326.4,1368.7 373.8,1362.7 366,1361C346.4,1362.2 329,1371.2 308,1366C286.7,1369.5 265.7,1357.8 253,1366C269.7,1368.9 297.7,1373.6 308,1371C329.1,1373.2 348.9,1372.1 369,1374C384.2,1369 426.5,1384.8 387,1380C367.8,1381.5 347.7,1383.1 327,1384C340,1390.1 363.2,1393.3 381,1393ZM1486,1393C1494.8,1386.9 1449.5,1378.4 1432,1382C1402.6,1384.4 1380.7,1378.8 1352,1379C1337.4,1378.2 1351.1,1384.3 1356,1382C1378.4,1380.8 1389.1,1390.6 1410,1389C1438.3,1387.7 1459.2,1392 1486,1393ZM1353,1392C1415.9,1389.3 1345,1387.7 1332,1382C1287.8,1363.6 1335.9,1394.3 1353,1392ZM52,1389C78.2,1383.1 101.7,1385.6 127,1387C152.1,1383.9 178.3,1386 194,1373C198.1,1370.2 211.3,1373.5 213,1370C252.8,1372.7 237.4,1363.6 214,1365C186.5,1363.5 174.6,1385.6 146,1378L124,1378C107.8,1386.3 115.9,1372.2 84,1375C61.7,1371 30.9,1376.4 9,1378C-6.7,1389.6 50.9,1377.3 65,1378C75.3,1374.8 78.1,1379.7 70,1382C54.2,1383.5 15.9,1384.4 52,1389ZM871,1389C899.1,1388.5 842.4,1374.1 833,1379C854.4,1368.9 890.5,1388.8 855,1369C849.1,1366.3 840.4,1368.6 849,1371C841.5,1379.2 798.8,1369.4 816,1379C822,1385.3 854.4,1380.4 871,1389ZM294,1383C303.9,1385.9 374.6,1379.8 336,1378C329.4,1378.9 324.9,1376.5 318,1375C315.7,1375.2 308.8,1372.6 306,1375C324.9,1385.4 287.8,1374.3 285,1377C265.8,1371.5 230.1,1370.1 222,1377C249.6,1372.6 273.1,1379.7 294,1383ZM1242,1383C1220.4,1382.4 1196,1382.3 1181,1375C1164.6,1368.1 1141.9,1379.2 1123,1375C1102.5,1372.7 1088.2,1377.7 1072,1374C1055.1,1369.5 1031,1369.8 1010,1371C988.5,1375.5 969.6,1372.5 947,1371C923.1,1372.8 906.1,1369.4 887,1368C854.7,1359.8 909.1,1368.3 920,1364C928.4,1367.7 976.5,1372.8 964,1366C944.6,1362.4 922.8,1362.7 910,1357C934.7,1354.7 949,1361.9 970,1362C978.5,1363.5 1033.1,1354.1 1005,1362C975.2,1367.2 975.2,1374.5 1008,1368C1025.8,1364.1 1054.9,1364.3 1071,1368C1087.5,1369.6 1101.2,1367.2 1126,1366C1147.5,1363.9 1171.1,1367.4 1188,1370C1204.6,1376.2 1227.9,1375.2 1242,1383ZM523,1380C541.9,1381.4 557.5,1379.1 573,1377C587.9,1377.1 607.8,1380.5 619,1375C629,1373 666.9,1372.7 648,1369C631.6,1370.3 614.9,1373.2 600,1374C582.6,1379 570.1,1370.5 550,1373C541,1372.1 502.4,1370.9 516,1366C534.2,1366.8 551.5,1369.1 568,1368C581,1373.5 602.8,1368.3 615,1368C629.4,1367.6 646,1363.4 662,1368C694.6,1372.4 679.5,1364.3 694,1362C712.3,1364.3 725.3,1354.6 741,1360C758.3,1363.8 776.6,1359.4 790,1359C815.9,1350.9 756.3,1356.1 798,1351C812.1,1355.4 828.6,1347.7 842,1350C856.2,1352 880,1351.9 892,1350C904.1,1349.3 942.7,1348.4 914,1342C910.7,1342.7 885.3,1345.3 870,1342C853.5,1338.6 844.3,1333.2 830,1342C815.2,1351.5 795.9,1345 819,1337C828.2,1331.6 848.6,1322.8 857,1333C879.5,1342.5 849.4,1318.3 838,1326C821.5,1326.1 807.8,1336.2 792,1330C775.5,1324.8 752.9,1342.1 750,1329C734.2,1324.8 717.5,1332 702,1330C687.1,1327.6 674.5,1322.2 658,1320C644.7,1314.8 630.5,1316.4 612,1316C584.4,1326.3 595.3,1308.2 614,1310C639.8,1311.7 643.1,1298.4 619,1303C597.6,1296.6 590.2,1316.2 576,1307C563.6,1302.6 554.8,1291.8 547,1283C528.1,1272.4 552.5,1299.7 555,1302C567.4,1307.9 577.5,1317.3 590,1320C605.6,1323 618.9,1327.7 635,1329C628.8,1325.2 622.6,1317.9 646,1326C661.5,1329.5 682.5,1328 693,1333C707.1,1331.3 727.3,1334.8 743,1333C748,1346.9 782.9,1325.6 770,1337C758.1,1349.1 743,1334.9 726,1338C706.2,1338.9 693.7,1339.1 677,1337C661.6,1338.6 653.8,1351.6 635,1344C619.5,1346.6 583.6,1342.8 618,1341C639.7,1341 590.9,1333.5 590,1342C578.1,1343.6 550.5,1357.2 579,1351C597,1344.4 609.6,1353.8 623,1355C640.6,1353.2 660.9,1361.6 671,1351C677.1,1338.9 702.7,1348.8 714,1347C731.5,1348.1 753.9,1352.4 752,1347C771,1348.9 778.9,1337.2 794,1337C822.2,1328 807.9,1341.1 792,1344C777.9,1348.2 763.8,1353.7 750,1356C736.4,1354.7 717.1,1350 704,1355C690.8,1353.4 673.3,1359.6 660,1361C646.2,1359.4 630.1,1361.1 614,1364C598.6,1363.2 579.6,1371.1 568,1365C555.1,1361.2 532.3,1364.5 519,1361C511,1366.4 472.2,1363.9 486,1360C504.5,1360.8 517.5,1355.7 537,1357C555.3,1357.2 570,1362.1 585,1362C611.4,1365.5 617,1355.5 588,1357C569.5,1358.9 560.4,1349.1 545,1351C527.7,1351.2 513.5,1356.6 497,1356C479.5,1359.9 466.7,1356.9 451,1357C464.7,1361.7 482.5,1363.5 492,1369C505.1,1370.4 534.9,1372.9 523,1380ZM1263,1377C1271.9,1378.1 1279.1,1375.4 1284,1375C1306,1373.1 1226.8,1371.3 1278,1369C1332.8,1370.8 1274.5,1359.8 1254,1364C1234.1,1379.4 1197.2,1352.9 1193,1362C1213.8,1370.5 1242.5,1370.1 1263,1377ZM133,1373C151.8,1369.8 170,1376.4 182,1368C196,1365.6 215.1,1357.2 227,1361C247.3,1369.5 256.1,1357.3 270,1352C287,1352.7 318.9,1348.7 284,1347C267,1343.7 255.7,1355.6 237,1355C221,1351.6 202.5,1356.9 189,1359C169.8,1359 155.9,1360.3 137,1359C128.4,1357.4 86.7,1355.4 97,1361C116.2,1360.7 131.8,1367.1 149,1364C168.1,1358.3 191,1373.2 156,1366C140.3,1371.6 124.4,1369.9 108,1366C92.6,1363.9 73.5,1360.6 59,1365C40.2,1365.6 29.8,1357.1 10,1357C-19.4,1361.3 28.2,1365.7 33,1366C47.9,1372.8 69.6,1366.6 83,1368C97.8,1372.1 120.6,1369.6 133,1373ZM317,1362C339.4,1363.3 360.2,1353 380,1359C423.8,1365.2 371.6,1352 361,1352C341.7,1357 315.3,1354.6 291,1355C247.8,1356.6 305.8,1361.8 317,1362ZM1069,1362C1028.4,1359.7 1067,1359.5 1080,1352C1083,1345.1 1137.2,1345.8 1112,1342C1093.4,1337.9 1063.2,1360 1086,1341C1100.1,1332.9 1128.1,1339.1 1143,1339C1181.1,1341.2 1098,1348.9 1150,1347C1185.9,1350.4 1132.3,1351.3 1122,1351C1117,1352 1065.2,1356.2 1090,1359C1131.2,1363.6 1081.2,1361.1 1069,1362ZM50,1360L73,1360C81.8,1356.6 133.6,1352 100,1350C80.5,1334.9 51.2,1348.9 25,1348C-20.3,1354.3 53.9,1353.7 64,1350C72.1,1348 75.5,1350.5 84,1350C93.1,1359 34.7,1354.1 50,1360ZM1443,1357C1460.3,1358.7 1472.2,1355.2 1488,1356C1501.9,1346 1467.6,1354 1459,1352C1447.1,1355.1 1422.2,1348.9 1428,1347C1444.9,1348.4 1454.1,1347.5 1470,1348C1465.3,1343.6 1445.1,1344.9 1431,1344C1415.1,1346.9 1403.4,1343.5 1388,1346C1364.9,1345 1396.9,1352.4 1406,1348C1420,1350.7 1432,1354.1 1443,1357ZM137,1355C162.7,1355.4 187,1354.9 205,1348C254.9,1352.7 212.4,1341.5 198,1337C174.1,1335 154.3,1340.7 129,1335C140.2,1344.4 172.9,1345.8 190,1341C211.6,1340.8 162.4,1353.4 149,1348C129.6,1344.9 111.1,1334.7 92,1334C99.6,1320.1 130,1315 145,1321C181.6,1335.9 143.7,1309.6 127,1312C103.3,1310.7 99.2,1332.5 78,1315C41.6,1292.4 103.3,1336.9 70,1329C47.2,1315 37.2,1335.8 10,1328C16.4,1323.3 56.9,1318 66,1326C74.7,1312.8 40.7,1315.2 20,1319C-18.5,1310.9 7.3,1343.3 32,1334C49.7,1324.8 73.9,1335.4 90,1339C115,1349.6 114.6,1350.6 137,1355ZM415,1355C425.5,1351.1 438.3,1348.2 455,1352C471.4,1358.1 485.1,1350.9 501,1351C527.5,1351.8 521,1346 497,1346C484.2,1348.7 464,1348.8 451,1348C435.8,1345 419.8,1343.9 406,1348C388.1,1352 377.3,1347 362,1343C353.5,1335.1 335.8,1332 322,1338C329.4,1342.1 354.9,1335.6 361,1346C344.8,1345.3 321.9,1348.5 312,1342C299.4,1337.9 281.7,1336.1 270,1332C255.7,1333.6 240.1,1341.9 225,1337C202.1,1324.3 215.3,1343.8 231,1343C248.6,1348.7 264.8,1340.9 277,1339C292.8,1341.8 303.4,1348.3 320,1348C335.9,1352.5 355.3,1348.1 370,1348C382.8,1353.3 399.2,1354.1 415,1355ZM1356,1353C1389.3,1356.5 1395.9,1349.9 1362,1347C1328.4,1330.6 1399,1349.4 1362,1335C1344.4,1342.4 1327.4,1337.1 1306,1335C1300.6,1333.3 1252.2,1330.7 1289,1338C1300.7,1336.7 1347,1341.2 1323,1343C1302.4,1347 1281.6,1343.9 1265,1341C1274.2,1349.1 1296.5,1351.1 1315,1352C1307.4,1346.5 1353.9,1344.3 1356,1353ZM978,1348C1034.8,1349.9 974.2,1335.4 952,1339C893.6,1344.3 966.6,1346.1 978,1348ZM443,1347C457.4,1347.7 495.9,1340.1 460,1339C441.4,1340.7 416.3,1336.6 443,1347ZM514,1346C531.9,1343.4 548.2,1347.6 568,1346C578.2,1338.5 534.7,1345.6 531,1338C513.2,1343.4 498.3,1332.1 482,1335C466.2,1345.1 512.2,1338.6 514,1346ZM1476,1346C1521.8,1342 1463.9,1339.7 1454,1338C1433.5,1336.8 1419.9,1331.5 1400,1330C1377.2,1340.5 1347.6,1312.1 1378,1326C1416.4,1325 1401.8,1320.5 1374,1323C1367.2,1308.6 1334.3,1308.2 1333,1324C1354.5,1314.2 1362.9,1332 1380,1335C1404.6,1341.9 1408.6,1326.1 1416,1338C1437.5,1340.1 1459.4,1340.5 1476,1346ZM12,1344C23.9,1343.8 87.4,1338.2 46,1335C35.2,1347.3 -23.6,1327.9 12,1344ZM932,1337C952.3,1331.2 969.6,1335.5 992,1335C979,1328.5 955.8,1323.3 941,1332C920,1330.8 907,1321.6 885,1320C896.3,1327.4 919.3,1330.9 932,1337ZM1458,1337C1465.8,1332.8 1499.7,1339.3 1490,1328C1479.9,1329.7 1457.1,1335.4 1458,1337ZM1027,1335C1021.8,1335.2 1013.5,1334.5 1010,1333C983,1318 1021.5,1333.9 1032,1325C1038.6,1325.6 1039.8,1317.8 1044,1317C1059.6,1291 1036.4,1320.2 1029,1320C1033,1322 986.2,1330.8 997,1298C997,1291.8 999.5,1285.2 1001,1283C987.9,1261.3 1042.5,1271.2 1017,1265C1009.8,1265 1004.9,1259.5 1014,1261C1030.4,1258.8 1058.7,1262.3 1049,1269C1064.1,1267.2 1061.1,1223.1 1076,1231C1066.3,1247.6 1064,1271 1058,1290C1054.3,1312.3 1044.5,1329.4 1027,1335ZM312,1334C334.1,1335.9 347.6,1328.7 318,1329C303.1,1328.9 294.5,1321.3 280,1319C264.8,1315.3 253.7,1323.8 239,1324C222.2,1328.8 216.9,1314.2 200,1321C174,1317.9 175.9,1324.1 196,1326C213.5,1326.5 215.3,1322.2 232,1329C248.5,1329 262.4,1326.6 275,1323C287.4,1327 297.8,1333 312,1334ZM1338,1334C1342.5,1334.6 1355.3,1330.7 1346,1330C1325.4,1330.3 1320.3,1316.5 1335,1307C1350.1,1304.8 1383.1,1285.4 1378,1312C1406.8,1303 1350,1282.7 1383,1278C1360.1,1259.4 1370.7,1301.1 1342,1289C1311.5,1279.9 1375.7,1268 1357,1265C1333.3,1260.7 1301.3,1278.3 1333,1288C1338.6,1289 1341.4,1295.3 1346,1294C1376.1,1292 1340.8,1303.2 1329,1303C1326.8,1307.1 1321.2,1310.6 1320,1314C1299.4,1322.7 1332.8,1326.3 1338,1334ZM1289,1329C1313.9,1332 1319.6,1325 1296,1324C1278.8,1317.7 1265.9,1329 1289,1329ZM1455,1328C1461.8,1329.3 1466.9,1326.2 1469,1325C1451.3,1313 1500.3,1326.8 1487,1315C1505.5,1299.7 1483.8,1295.9 1470,1311C1439.1,1330.3 1486.5,1288 1458,1296C1439.9,1304.7 1422.6,1299.8 1406,1293C1407.3,1301.3 1434.8,1306.9 1452,1302C1452.1,1305 1425,1306.2 1410,1311C1378.7,1322.7 1400.5,1319.9 1424,1320C1421.7,1300.2 1451.5,1318.1 1455,1328ZM343,1326C332.6,1316.8 341.5,1322.9 336,1303C330.4,1289.8 341.6,1311.6 316,1305C288.3,1297.7 347.2,1287 320,1287C300.8,1285.7 299,1301.8 280,1301C267.4,1313.9 252.4,1301.1 237,1303C241.8,1312.7 267.9,1315 276,1307C296.4,1301 306.3,1314.7 322,1314C336.4,1309.8 316.8,1328.2 343,1326ZM708,1326C726.8,1324.1 733.8,1312.7 753,1317C763.9,1305.1 782.6,1314.1 757,1299C747.7,1290.7 747.3,1267.9 723,1276C713,1285.9 675.5,1270.6 696,1287C714.7,1295.8 727.6,1269.5 740,1284C744.1,1296.1 768.4,1308.8 743,1311C722.2,1304.8 723.6,1330.3 696,1321C660,1316.4 696.6,1325.7 708,1326ZM450,1323C467.9,1323.7 480,1318.7 492,1314C504.5,1304.5 525.1,1321.9 531,1311C518.7,1309.8 500.3,1301 488,1310C477.6,1316.3 459.9,1315.7 450,1323ZM833,1323C852,1324.8 885.5,1314 882,1314C864.5,1297.7 846.1,1317.4 833,1323ZM162,1321C175.9,1313.4 209.2,1302.4 225,1317C271.9,1318.5 217.1,1307.3 205,1301C176.9,1311.3 164.2,1292 140,1305C131.4,1305.1 130.5,1310.6 141,1308C184.7,1306.2 150.7,1317.3 162,1321ZM379,1321C371.9,1323.7 360.9,1317.4 371,1317C395.8,1320.4 392.2,1293 402,1283C414.3,1258 336.2,1256.7 381,1256C383,1253.4 365.8,1253.3 376,1249C381.9,1249.7 387.8,1247.4 392,1248C391.8,1251.6 389.8,1265.9 403,1254C422.8,1226.9 366.6,1249.7 360,1245C357,1243.2 361.3,1236.3 353,1235C337.7,1230.3 381.8,1229.8 392,1226C428.6,1225.8 422.4,1206.9 450,1221C453,1226 438.2,1225.4 434,1225C412.8,1225.3 419.6,1255.7 412,1269C410,1295 401.7,1316.9 379,1321ZM450,1320C454.8,1308.1 478.3,1308.2 486,1303C466.3,1297.9 451.4,1306.4 450,1320ZM936,1320C949.7,1324.8 989.9,1314.5 959,1314C942.2,1317.1 928.3,1307.6 918,1302C909.8,1296 870.4,1293.6 898,1302C911.2,1308.2 921.1,1318.7 936,1320ZM1013,1317C1035.1,1318.8 1025,1294.2 1014,1292C992.3,1283.8 1002.7,1320.2 1013,1317ZM97,1311C111.1,1307.3 77.2,1298.1 68,1303C51.6,1307.2 92.9,1308.8 97,1311ZM1199,1311C1159.8,1317.6 1195.5,1257.9 1186,1302C1216,1316.9 1216.8,1262.3 1185,1276C1167,1318.1 1172.5,1256.1 1199,1269C1225,1277.1 1219.5,1303 1199,1311ZM375,1310C349.5,1314.4 342.7,1268.4 366,1266C397.3,1259.4 397.1,1308.4 375,1310ZM677,1308C692.3,1307.8 733.4,1294.3 694,1297C681,1303.5 634.1,1302 677,1308ZM1032,1308C1040.8,1302.1 1023.6,1283.9 1046,1285C1071,1276 1044,1277.6 1033,1281C1024.2,1278.3 987.3,1282 1009,1284C1022.6,1286.7 1031.7,1295.6 1032,1308ZM367,1302C386.6,1306.9 387.8,1275.2 372,1274C348.7,1268.4 358.3,1299.2 367,1302ZM631,1298C645.7,1302.1 691.3,1289.1 653,1292C633.7,1297.6 603,1281.4 631,1298ZM225,1294C234.1,1289.6 304.4,1288.8 257,1287C239.8,1287.5 189.6,1283.8 225,1294ZM524,1293C538.5,1291 511.1,1279.2 501,1285C487.8,1284.3 516.3,1294.2 524,1293ZM87,1290C107.6,1293.4 115.5,1280.4 132,1288C140.4,1285.1 168.1,1290.7 156,1275C147.5,1285.1 131.2,1285.5 114,1283C108.8,1287.3 61.6,1284.2 87,1290ZM785,1287C780.5,1287.4 771.7,1285.3 777,1281C806.2,1268 770.8,1286.1 766,1270C754,1266.2 761.9,1208 767,1231C783.8,1244.9 806.1,1251.6 776,1233C762.6,1224.2 756.6,1192.9 788,1202C807.3,1204 842.4,1197.2 842,1197C836.3,1195.3 830.8,1194.1 842,1194C870.3,1190.2 868.1,1205.8 844,1203C812.2,1194.9 818.9,1225.6 813,1244C810.4,1264.6 804.1,1283.6 785,1287ZM1271,1287C1267.8,1286.9 1266.6,1265.2 1263,1254C1273.7,1249.4 1273.5,1279.2 1271,1287ZM894,1285C901.5,1281.8 877.9,1273 867,1271C855.5,1282 888.7,1279.1 894,1285ZM441,1284C443.3,1269.7 427.1,1252.9 434,1247C440.3,1254.8 449.4,1278 441,1284ZM63,1271C78.9,1275.3 118.3,1259.4 84,1263C60.2,1267.2 55.5,1256.6 83,1260C121.9,1258 64.1,1254.6 56,1254C24.6,1244.9 58,1263.8 63,1271ZM780,1271C803.7,1264.4 768.8,1238.1 765,1244C766.7,1245.8 774,1253.3 768,1253C757.6,1241.6 771.8,1274.9 780,1271ZM604,1260C624.6,1260.6 642.9,1259.2 660,1257C690.6,1262.1 695.9,1246.6 663,1252C672.2,1244.4 625.9,1249 654,1245C656.1,1230.2 625.2,1229.8 619,1242C603.8,1254 585.3,1240.6 577,1233C535.9,1239.9 591.1,1238.1 581,1244C568.7,1243.6 533.2,1231.2 558,1247C570.1,1254.8 590.3,1254.2 604,1260ZM518,1252C546.4,1246.7 519.6,1244.8 505,1244C475.4,1245.8 505.7,1254 518,1252ZM1314,1236C1329.2,1238.1 1359.6,1235.9 1339,1230C1315.1,1219.9 1329.9,1235.5 1314,1236ZM1013,1217C1010.4,1197.3 1012.6,1211.8 1015,1211C1028.2,1205 1044.5,1212.3 1060,1209C1089.8,1203 1072.1,1214.3 1058,1216C1042.2,1218.4 1025.8,1211.3 1013,1217ZM1000,1212C990.3,1204.1 960.2,1213.8 956,1200C968.7,1207 995.5,1200.6 1000,1212ZM1191,1202C1211.9,1203.2 1265.7,1197.2 1251,1191C1245.9,1194.5 1237.6,1193.9 1231,1195C1222,1198.2 1167.8,1196.3 1191,1202ZM324,1185C301.8,1192.6 272.5,1166.7 282,1168C298,1178.4 322.7,1178.6 348,1177C359.9,1177.7 429.9,1177.1 392,1179C369.4,1181.1 343.2,1179.8 324,1185ZM1361,1173C1363.5,1152.1 1347.3,1141.6 1324,1141C1303.4,1138.6 1279.7,1138.3 1257,1136C1235.8,1134.2 1211.6,1134.4 1189,1132C1167.7,1131.6 1143.2,1127.4 1123,1131C1125.1,1139.7 1162.6,1136.9 1180,1139C1202.2,1141.2 1225.7,1141.8 1248,1143C1270.7,1144.7 1293.3,1146.1 1316,1146C1337.9,1149.5 1358,1153.4 1361,1173ZM711,1157C734.5,1156.3 760.3,1156 775,1148C798.6,1132.7 777.6,1116.5 766,1137C744.2,1135.6 716.8,1136.8 694,1136C672.5,1134.3 646.6,1136.3 628,1130C598.8,1142 602.2,1091.6 594,1107C590.6,1083.8 604.7,1071.3 612,1055C620.4,1039.6 629.6,1022.6 637,1008C646.2,992.5 655,977.3 664,963C674.1,948 688.3,936.1 696,921C714.6,894.5 682.8,933.1 677,937C666.3,950.4 655.2,965.5 646,979C638.6,995.6 629.1,1010.2 621,1026C614.4,1043.8 601.7,1057.2 595,1073C583.9,1084.6 583.2,1116.5 594,1128C601.5,1145.7 626.5,1146.8 646,1149C669.2,1151 689.4,1154.7 711,1157ZM735,1150C703.8,1152.8 680.1,1145.3 653,1144C645.9,1144.6 637.3,1143.3 633,1141C594.6,1135.5 625.7,1134.4 644,1140C671.9,1142.3 701.6,1143.7 730,1143C736.5,1143.8 748.5,1141.6 750,1144C794.9,1148.7 748.8,1147.9 735,1150ZM1110,1144C1135.9,1144.6 1129.3,1139 1109,1137C1097.7,1138.1 1072.9,1128.1 1100,1130C1112.3,1134.8 1130.4,1124.3 1118,1112C1099.6,1122.6 1101.2,1109.1 1118,1108C1115.3,1100.2 1099.2,1115.2 1086,1112L1041,1112C1016.3,1107.3 976.7,1116.8 970,1092C968.3,1080.2 963.7,1067.4 966,1053C973.6,1028.3 962.3,1039.2 961,1054C957.7,1064.8 958.4,1085 961,1095C963.2,1108.7 971.4,1117.6 979,1122C983.7,1127 1011.5,1134 1000,1135C981.4,1139.4 1019.5,1139.7 1026,1139C1054,1141.1 1082.9,1142.2 1110,1144ZM281,1132C297.9,1131.9 290.8,1107.6 297,1096C300,1082.6 304.2,1069.6 309,1058C315,1046.1 318.3,1032.3 325,1022C331,1011.3 339.9,1001.5 345,992C354.3,983.9 362.5,974.9 372,968C384.4,962.5 389.6,950.6 401,945C424.3,934.1 404.3,935 394,946C377.3,963.5 383.8,947.4 396,941C403,931 420.1,931 434,928C447.3,927.4 466.9,929 483,928C497.5,923.1 513.2,930.3 528,927C544.8,927.5 562.3,923.5 576,927C592.2,926 607.6,924.4 624,924C637.5,920.5 659,923.3 666,915C672.4,904.7 692.3,907.4 702,900C714.6,896 722.3,885 738,885C753,892.9 766.7,883.5 781,883C799.4,883.8 815.8,883.1 831,882C845.7,878.7 866.9,882.7 880,879C896.1,878.3 914.2,877.6 929,878C944.2,875.4 962.5,875.8 975,875C1006.6,873.6 984.1,865.6 966,871C950.2,872.2 933.6,872.8 918,874C900.6,873.4 883.5,875.1 869,875C854.7,878.2 834.8,875.5 820,878C803.5,878.5 785,877.1 770,879C756.1,884.9 741.6,882.3 723,882C712.1,884.2 741.9,872 750,874C765.4,871.7 782.9,872.1 798,870L848,870C862.6,867.4 880.7,868.2 896,866C914,867.9 929.5,864.6 945,865C958.3,866.8 975.9,863.2 991,862C1004.1,864.1 983.7,872.6 1013,864C1030.1,866.1 1039.6,859.8 1058,860C1073.9,859.4 1088.5,855.3 1103,855C1118,852.8 1133,850.6 1148,848C1163.6,846.9 1179,845.1 1194,843C1209.4,841.3 1225,839.7 1240,838C1255.8,836.8 1273.1,835.4 1285,833C1299.3,829.5 1323.8,836.9 1326,822C1332.6,811.5 1333.3,795 1333,777C1325.5,763 1323.7,796.2 1324,804C1322.2,819.3 1306,821.8 1296,826C1272,827.4 1267.1,832.8 1281,820C1291.1,813 1290.4,793.6 1290,779C1287.1,778.3 1277.7,764.7 1276,788C1280.8,808.8 1269.1,815.8 1254,816C1229.8,826.5 1265.3,820.6 1272,816C1280,800.2 1284.6,790.4 1278,816C1265,823.1 1262.1,830.1 1243,830C1227.9,834.3 1210.1,828.7 1198,833C1182.9,837 1165.8,829.9 1152,835C1122.6,840.8 1145.2,832.5 1158,829C1163.1,821.5 1187.1,825.6 1193,815C1198.4,791.4 1201.9,796.5 1197,817C1193.2,827.1 1159.9,830.4 1189,830C1211.7,828.2 1202,821.5 1222,820C1239,828.3 1239.6,785.7 1242,806C1247,823.5 1216.6,823.6 1221,828C1238.6,833.4 1244.7,818 1249,807C1256.9,795.5 1245,771.4 1257,767C1274,764.4 1288.7,768.5 1303,765C1319.2,763.8 1314.8,794.1 1312,801C1304.5,808.7 1279.5,816.3 1307,808C1321.1,806.3 1322.1,787 1319,771C1316.5,762.3 1345.7,765.9 1356,762C1369.5,759 1371,741.8 1373,729C1375.7,714.4 1377.4,699 1379,684C1381.7,669 1383.3,653.5 1386,639C1387.6,623.5 1390.6,609.3 1392,594C1394.9,580 1397.3,563.6 1400,551C1401.4,535.7 1405.1,522.2 1406,506C1409.1,491.9 1411.4,477.1 1414,462C1424.4,443.1 1404,443.7 1387,443C1371.9,444.7 1353.8,445.4 1338,444L1287,444L1236,444L1185,444C1168.8,444.9 1149.7,445.3 1136,443C1110,445.6 1119,437.8 1141,438L1193,438L1244,438L1294,438L1346,438L1397,438C1415.4,430.2 1426.1,458.6 1427,444C1420.2,435.2 1410,426.7 1397,424C1380.8,424.6 1362.3,423.3 1347,425L1296,425C1281.1,427.9 1262.4,426.2 1245,426C1230.4,428 1212.4,428.7 1197,428C1178.7,427 1164.2,429.6 1146,429C1130.6,430.7 1110.3,427.9 1099,429C1085.4,430.8 1066.6,429.7 1053,426C1039.2,424.2 1024.9,419.7 1009,420C994.9,417.7 977.7,417.7 963,415C947.2,413.9 932.1,411.9 916,410C900.2,409.5 885.9,406.7 869,406C855.1,403.8 838.6,401.5 824,401C809.1,399.1 794.2,396.8 777,396C763.2,393.6 747.8,391.8 732,389C716.1,389.1 701.8,386.3 685,385C671.2,383.3 653.4,382.3 640,380C625.2,378.6 609,377.5 594,375C578.4,373.9 562.7,372.5 547,370C532.1,368.8 516.4,367.3 501,365C486.6,363.5 469.6,361.6 456,360C440.8,358.5 426.2,356 410,354C395.8,352.7 377.9,351.9 365,349C349.1,348.7 333.7,346.8 317,345C303.1,343.8 286.3,341.9 282,330C274.5,321.6 270.1,308.9 262,299C255.7,289 251.3,276.3 243,267C238.8,259 231,246.5 225,236C218.6,226.5 211.6,214.7 204,207C197.5,196.8 190.3,186.8 181,178C164.1,159.6 177.2,180.8 185,186C192.4,196.3 198.7,207.1 205,217C211.5,228.1 219.5,238.8 225,248C231,259.2 237.8,269.6 244,280C250.3,291.4 257.1,301.7 263,312C270.3,322.9 276,334.3 282,344C288.5,355.4 295.7,367 300,376C307.3,387.4 314.1,397.8 320,408C326.5,419 333.7,430.6 338,441C345.6,450.7 350.8,462.6 357,473C362.9,484.2 371.1,494.7 375,505C382.8,515 388.1,526.9 394,537C401.1,548.2 407.1,559.4 414,569C419.3,581.4 426.6,591.3 432,603C437.8,613.7 445.4,624.9 450,635C457,645.3 462.5,656.9 469,667C474.7,679 481.4,689.4 487,700C493.7,711.4 500.3,722 505,734C511.2,744.7 518.2,756.5 516,772C511.9,781.2 510.3,749.6 504,744C497.4,733.9 492.6,721.5 486,711C480.4,699.5 473.7,689 466,678C460.9,668.2 454.2,656.1 448,646C442,636.3 436.4,624.8 429,614C423.7,603.8 415.9,592.8 411,582C404.5,572.2 398.9,560.7 392,550C386.4,539.5 379.4,527.8 375,516C368.6,506.5 362.5,495.5 356,484C350.1,473.6 343.3,463.3 336,452C331.2,441.1 324.6,430.6 317,420C312.5,409 304.1,398.6 299,388C292.6,378.2 286.7,366.9 281,354C274,345.3 267.9,334.2 262,322C255.5,312.4 249.4,301.3 243,290C236.2,280.9 229.4,268.9 223,259C217.5,248.8 210.2,238.9 204,227C196.1,218.8 191.4,206.3 182,198C176.3,187.1 166.1,180.2 158,171C142.2,152.9 169.8,156.5 176,164C182.1,175.8 192.7,182.3 200,191C207.4,201.3 215.5,211.9 221,221C228.3,231.1 233.1,243.5 241,252C250.6,259.6 275.2,253.8 288,255L339,255C353.9,253.2 373.2,255.4 389,254C407.8,255.6 421.3,252 439,253L489,253C519.5,252.6 499.4,243.1 484,245C470.2,242.9 451.1,244.9 434,244C420.1,247 400.8,244.8 384,245C370.2,247.9 349.8,246.2 335,246C321.1,249.6 301.8,247.4 285,248C270.5,245.9 245.6,253.6 241,240C234.5,230.5 229.2,218.7 221,209C215.1,199.1 207.3,188.1 199,181C199.7,170.4 171.9,162.1 183,158L234,158L285,158C299.6,155.8 319.8,157.2 334,156L385,156C402.5,156.5 421,157.9 435,155C453.5,156.1 470,155.4 486,154C503.8,153 521.6,153.9 527,163C534.5,170.6 545.9,182.8 550,186C536.5,189.7 524.9,195.3 516,204C511,215.2 501.7,226.6 507,241C517.3,260.8 494.7,258.9 480,259L429,259C411.1,258.5 396.6,261.2 379,261L327,261L277,261C268.9,266.7 229.8,255.8 248,264C262.4,267.1 282.8,265.5 297,266C313.5,265.5 332.7,267.5 347,264L397,264C414.1,264.5 432.6,265.9 447,263L498,263C517.9,256.6 492.8,279.1 478,268C461.1,268 445.6,271.3 429,270L378,270C361.5,270.7 342.3,268.6 327,271L276,271C260.4,275 233.9,261.6 253,275C260.5,285.1 266.5,296.2 272,307C279.8,317.2 283.2,330.9 302,329C317.3,331.1 333.3,332.3 348,334C362.8,336.4 380,338 393,339C408.8,341.2 423.2,344 439,344C453,347.8 471.7,347.9 483,351C500.4,351.1 512.8,355.9 529,356C544.4,357.9 560.5,360.7 574,361C589.2,363.9 606,364.2 619,367C650.5,373.6 620.1,358.2 630,342C633.1,327.9 635.6,313.3 639,299C634.3,279.6 665.4,288 675,288C683,292.5 671.9,314.6 671,325C668.7,334.4 667.9,366 659,354C663.5,341.7 665.3,326.3 668,312C677.7,292.5 670.3,286.8 666,308C661.9,333.5 656.5,296.5 650,293C643.4,308.3 656.4,318.9 662,327C642.9,338.2 645,299.2 639,325C636.1,339.7 637.3,356.4 641,367C654,372.4 670.9,372.7 686,374C700.7,376.6 718.4,377.6 731,379C746.7,381.3 761.5,383.6 777,384C792.3,386.5 808.8,388.8 822,389C837.8,391.8 853.2,393.6 869,394C883.6,397.4 900.7,397.5 915,399C930.9,401.6 946.7,402.9 961,405C977.4,405.8 994.3,407.7 1008,408C1024.2,409.8 1039.5,411.7 1055,412C1071.6,413.8 1088.1,414.5 1105,414C1128.4,414 1090,406.5 1080,408C1067,405.4 1046.4,407.2 1033,405C1020.5,401.1 1003.7,400.8 987,399C971,399.2 958.3,394.7 941,394C927.2,391.5 909.1,392.4 896,388C878.5,389.4 866.7,382.5 849,384C836.6,380.5 821.5,378.5 806,376C809.4,372 841.7,369.8 844,378C848.8,378.4 852.6,373.2 874,379C887.6,382.5 907.7,381.2 918,385C934.9,385.9 947.5,390.5 965,389C976.1,396.2 997.8,391.7 1010,396C1029.1,394.6 1038.3,402.5 1056,401C1073.8,401.6 1087.6,396.6 1103,397C1121.1,396.5 1130.5,404.2 1148,403C1160.9,404.7 1188,403.9 1188,408C1169.9,409.8 1155,407.5 1139,406C1125.1,403.8 1109.1,401 1094,401C1092,406 1117.6,408.3 1128,410C1142.7,413.4 1160.7,412.6 1176,414C1193.1,413.5 1208.5,411.8 1226,412L1276,412C1295.1,414 1308.7,410.4 1326,411C1358.1,413.4 1348,407.6 1326,407C1308.4,408.9 1294.5,405.6 1276,406C1260.4,406.1 1242.9,404.9 1229,403C1213.5,402.2 1198.8,399.7 1182,398C1167.3,397 1152.6,394.6 1136,393C1122.4,390.5 1107.7,388 1091,387C1077.2,384.9 1063.8,379.5 1047,380C1032.1,379.2 1016.3,377.9 1001,375C984.3,375.6 971.4,371.3 952,372C935.5,372.9 927,364.3 909,365C891.2,366.4 876.1,362.8 862,361C850.7,356.1 828,361.7 820,352C814.2,331.7 842.9,345.1 853,344C869.5,345.9 884.2,348.4 900,349C913.9,352.3 931.5,353.5 943,356C959.7,357.3 974.4,359.8 990,361C1004.7,363.1 1020.8,365.8 1035,366C1049.7,368.9 1065.1,370.6 1080,372C1095,374.4 1112.3,375.8 1125,378C1140.6,379.5 1156.3,381 1171,383C1187.3,384.3 1202,386.8 1217,388C1232.7,390.3 1248.7,391.4 1263,393C1278.3,395.5 1296,396.6 1308,398C1324.3,400.3 1340.4,401.3 1355,403C1371.3,404.7 1387.1,406 1400,410C1412.4,409.4 1414.1,440.1 1420,430C1420.1,414.8 1411.3,404.9 1400,401C1386.8,397.4 1371.7,395.3 1356,393C1339,393.7 1326.4,389.1 1312,385C1298,377.1 1323,382.6 1328,370C1320.7,373.8 1323.1,347.9 1315,371C1295.5,368.9 1310.5,370.9 1317,358C1330,345.3 1306.7,338.2 1302,331C1289,325.4 1271.9,332.6 1254,330C1273.4,336.5 1246.5,338.7 1233,335C1223.6,327.8 1200.6,333.7 1191,325C1196.6,318.1 1164.9,324.7 1175,339C1185.8,356.4 1176.7,363.3 1184,363C1210.8,370.6 1184.4,375.2 1168,372C1153.8,370.6 1136.4,370.9 1122,367C1106.8,366.2 1090.4,365.5 1076,362C1060.5,361.1 1047,357.4 1031,356C1034.7,349 987.3,349.3 1010,347C1024.8,345.6 992.8,338.5 984,336C956.1,336.8 1013.8,346.7 981,348C962.7,349.6 948.8,346.4 932,345C917.7,343.8 901.2,341.5 887,340C872.1,338.7 857.2,336.4 840,335C821,333.2 825.1,327.9 830,311C827.7,290.2 846.5,292.8 847,289C833,284 811.9,284.3 815,302C812.9,317.1 807.2,328.5 804,343C794.3,362.5 801.3,364 807,363C807.4,382 785.3,375.9 771,374C755.6,373.4 740.8,369.5 726,369C706.5,378.7 707.4,335.4 714,357C726.9,369 746.9,356.1 748,360C739.5,370.5 778.8,360.8 781,367C780.6,372.3 795.1,375.9 793,352C793.2,335.1 797.8,322.5 801,308C799.3,289.7 810.5,283.8 825,281C836.9,283.5 867.4,285.2 861,276C847.2,278.7 827.1,277.4 812,277C797.5,280.1 780.9,275.5 765,279L714,279L663,279C644.5,278.9 631.9,279.9 615,279C601.6,283.7 584.7,280.5 568,280C553.5,282.6 534.9,281.2 518,281C524.5,275.4 549.1,279.6 561,276L612,276C626.9,274.1 645.6,275.8 662,275C680.6,276.4 694.5,273.2 712,273L763,273C778.2,276 813,271.1 780,271L729,271C712.6,272.1 693.3,269.9 678,272C663.5,269 646,272.8 630,272L579,272C563.8,273.7 547.4,274.4 529,273C509,272 510.1,286.6 511,303C507.6,316.4 506.8,332.8 498,342C467.5,341.6 509.5,343.2 500,324C504.3,311.7 509.5,297 507,282C515.4,273.3 518.4,259.2 537,261C555.1,261.6 571.3,260.5 586,258C572.3,251.6 597.9,252.9 606,259C600,255.2 598.8,232.9 591,228C589.9,244.5 577.2,248.9 561,250C548.9,256 527.7,259.2 533,245C513,259.8 532.8,233.1 533,226C537.9,213.4 551.2,209.6 567,208C580.6,207.2 603.2,204.5 613,210C621.5,219.7 620.2,238.2 627,248C642.5,249.6 657.7,253.1 669,255C663.6,249.6 651.6,241.2 633,243C626.2,242.2 619.7,202.7 631,218C623.4,234 652.7,250.6 642,237C645.5,223.5 624.1,211.7 632,208C649.7,208.3 669,206.1 669,222C674.4,232.9 683.6,248.8 677,258C664.7,261.4 648.3,265.4 633,263C618.7,262.2 620.5,241.6 613,234C608.3,221.8 607,206 585,210C559.4,208.1 555.1,217.7 581,217C599.1,216.4 604.8,227.9 610,239C613.6,249.3 630,270 608,263C591.5,264 577.2,266.9 559,266C548.4,265.2 508.6,270.2 542,270C559.9,270.2 574.4,267.5 592,268C608.9,268.2 626.3,266.1 640,268C654.5,265.8 674.9,269 689,266C721.2,270.3 695.4,261.9 693,250C686.9,239.7 682.4,227 675,217C664.2,204.1 647.5,208 678,207C697.8,205.2 701.7,218.5 705,231C713.6,240.9 716.5,255.1 723,264C738.3,267.6 757.6,265.4 774,266C789,264.6 813.2,270 819,261C816.4,261 788.8,261.4 775,261C759,260.8 738.4,262.6 729,257C720.5,248.5 717.8,234.1 711,223C698,206.8 710.4,203.3 730,205C744.5,204 764.6,203.8 779,205C795.2,206.8 811.5,207.7 826,209C844.8,209.1 845.1,226.7 839,240C838.6,255.9 827.5,275.9 844,259C848.8,246.7 850.5,231.2 849,213C845.4,201.4 827.1,200.9 812,200C794.4,201.6 780.8,198 762,199L712,199C696.9,201.1 679.4,200.7 662,200C643.7,199.3 630.2,202.9 612,201C595.5,202.5 579.7,203.8 563,204C532.8,209 567.6,197.2 578,200C594.3,199.2 610.4,198.1 627,198C642.8,196.2 660.3,196.6 677,196C695.9,197.9 710.4,195.3 727,195L777,195C785.7,195.1 830.4,196.5 810,194C795.6,191.4 776.2,193.6 759,192L708,192C692.5,193.5 672.1,191.9 659,194C641.1,192.8 627.2,196.1 609,195C594.7,197.2 574.6,195.9 561,198C544.1,197.4 536.8,207.2 528,216C523.3,226.2 515.7,240.5 513,248C509.9,231.4 516.8,220.3 523,209C530.6,199.8 541.9,193.9 558,192C572.7,190.4 592.3,192.9 606,190C624.6,191.5 639.8,187.9 655,189C681.8,189.1 641.3,182.9 642,173C633.2,154.2 662.2,162 666,171C674.7,182.9 670.8,190.3 694,189C708.2,186.3 728.9,188.4 743,187L794,187C809.5,189.9 829.1,187.5 839,194C850.4,201.5 867,212.4 849,194C842.3,185.2 824.6,184.1 811,182L759,182L709,182C693.5,181.7 676.5,181.5 676,164C659.9,160.8 670.2,151.8 655,145C639.5,144.4 626.3,140.4 619,129C609.8,122.6 604.5,110.7 595,102C589.3,91.7 577.1,86.8 559,87C545,89.7 537.6,101.1 525,104C512.2,111.4 498.7,97.9 482,104C464.3,103.5 450.4,106.7 432,105L380,105C363.1,104.5 346.1,106.3 331,106L280,106L228,106C212.2,107.2 196.8,108.9 178,108C163.3,114.9 138.8,93.5 151,108C161.7,115.1 183.5,110.5 199,111C216,111.7 232.1,114.3 248,113L299,113C317.2,114.2 332.3,110.6 348,111C365.7,111.9 383.2,112.3 398,110C415.8,110.7 433.3,111.1 448,109L500,109C512.9,113.1 537.3,107.5 546,113C553.4,122.1 523.9,115.6 510,118C495.2,120.6 478.9,116.2 462,119L411,119L361,119C346.4,121.9 327.7,120.2 311,120L259,120L208,120C191.7,120.9 172.5,121.3 159,119C145.5,116.3 141.9,102.8 129,97C123.4,85.3 95.1,87.8 118,97C131.9,101.2 136.3,114 147,119C158.6,125.3 170.8,131.9 178,138C203.3,149.7 178.4,147.1 165,141C149.4,140.8 135.9,137.1 128,127C123.7,115 108.5,113 104,100C96.9,91 84.7,84.5 70,83C53,83 43.8,91 36,100C30,109.9 24.3,125.7 27,140C28.2,156.1 34.1,167.3 42,176C50.4,184.7 60.6,193.3 66,201C75.2,210.7 82.5,220.5 101,218C116.4,247 103.2,208.8 113,225C119.7,235.5 121.4,251.1 126,263C128.9,277.2 134.1,290.7 136,303C139.6,317.2 145.3,328.7 147,343C151.3,356.4 155.2,371.2 158,383C163.7,394.8 165.9,409.7 171,421C174,435.3 178.6,449.4 182,460C185.1,474.9 190.9,486.2 194,500C198.1,513.3 201.8,526.8 205,540C210.1,552.8 213.1,566.9 217,579C221.1,592.6 225.4,607 228,618C231.9,632.6 238.2,643.4 240,658C245.7,670.2 248.8,684.2 253,696C257.4,709.9 260.5,723.9 264,736C268.3,749.8 273.6,763.2 276,775C280.3,788.6 284.5,801.5 289,813C293.2,827.1 297.5,840 302,852C306.7,865 310.8,878.1 318,887C325.7,896.8 333.5,907.8 345,910C356,912.6 387.7,916.7 363,923C357.3,933.1 343.3,937.9 336,946C330.1,956.6 321.2,964.9 313,974C306.9,984.2 300.1,996.3 294,1005C291,1009.7 277.4,1042.9 289,1028C295.7,1017.9 300.8,1005.8 307,995C314,984.7 322.5,976.1 329,965C337.7,957.6 346.3,947.4 354,941C369.4,938.6 373.9,925.9 387,921C400,917.7 415.7,916.2 430,914C408.7,920.5 412.6,924.4 435,919C446.7,913.6 472,920.1 480,914C492.3,908.5 506.7,905.7 520,902C533.4,898.2 553.5,901.1 565,896C581.6,892.4 595.3,893.3 609,893C623.5,891.1 641.9,890.8 653,887C670.8,885.3 684.9,883.3 694,887C717,880.8 719.4,884.9 699,891C684.7,893.4 668.7,894.5 654,897C636.3,898 621.8,895 608,898C596.1,899.7 573.2,904.9 567,901C598.1,896.4 560.1,896.3 550,900C536.3,904.8 534.3,908.2 513,909C495.6,908.1 491,922.3 477,923C459.4,923.8 442,921.5 430,923C421.1,925.4 402.1,928.5 394,934C383.7,940.9 378.1,952.4 365,956C355.2,963.8 346.1,976.5 348,979C342,990.4 332.4,997.9 326,1009C318.1,1018 312.6,1029.6 307,1041C300.8,1052 294.8,1063.2 290,1076C286.7,1088.8 282.1,1102.9 280,1116C278.2,1140.1 286.9,1102 288,1095C292,1082.9 295.6,1067.8 300,1058C303.5,1063.4 296.5,1084.4 293,1094C289.1,1106.6 290.3,1126.6 281,1132ZM698,1130C706.1,1131.2 712.6,1127.8 718,1128C760.6,1130.1 717.3,1124.1 700,1126C675.8,1123.4 645.3,1124.4 626,1117C620.5,1115.9 613.1,1113.5 612,1109C593.3,1086.4 608,1123.9 623,1121C643.2,1129.3 674.3,1127.7 698,1130ZM964,1130C1009.2,1130.4 955.6,1118.6 941,1121C917.7,1120.2 892.6,1119.2 869,1119C843.7,1120.9 821.3,1117.2 797,1118C778.3,1111.5 746.5,1124 738,1107C732.7,1087.8 746.1,1066.7 749,1050C757.1,1033.6 765.5,1015.9 775,1002C785,988.2 795.6,972.6 806,960C811.8,951.8 833.4,915.2 801,919C779.6,922.3 750.4,919.2 734,925C727.5,925.1 724.7,931.4 721,932C701.8,948.9 737.7,939.1 749,939C762.5,941 813.5,926.1 789,937C766.9,938.7 765.4,961.2 752,972C742.1,986.4 731.7,1002 725,1018C717.5,1035 707.4,1051.1 703,1069C695.3,1086.9 704.4,1122.6 681,1116C660.1,1113.4 633.8,1115.7 623,1101C604.3,1113.4 620.8,1092.7 627,1076C633.8,1058.1 644.3,1042.5 651,1027C659.7,1010.8 669.5,994.4 678,981C687.9,965.7 699.8,951.4 711,939C720.7,925.2 735.6,913.9 756,911L775,911C764.5,907.1 786.2,905.5 804,905C824.7,905 848.9,900 871,903C897.5,905.7 917.5,901.6 939,900C963.5,899.3 989.1,898.7 1010,897C1040.9,892.7 998.5,913.8 1002,929C994.2,945.2 988.1,965.3 983,983C976.6,1001 969.8,1025.3 977,1031C970.1,1048.1 962,1074.4 979,1083C987.5,1079.9 975.8,1048.8 987,1033C993.7,1015.6 1000.8,996.6 1005,978C1011.6,960.6 1018.5,943.5 1027,928C1029.8,924.7 1032.3,918.2 1031,912C1027.3,878.8 1044.7,912.8 1035,924C1026.2,940 1017.1,957 1013,975C1006.4,993.5 1000.6,1013.8 993,1029C989.4,1045.4 979.9,1076.4 992,1089C1004.9,1101 1034.1,1098 1054,1100C1076.9,1104.2 1104.5,1099.1 1122,1103C1138.7,1138.4 1129.4,1082 1104,1094C1079.8,1094.8 1058.2,1092.4 1035,1091C1012,1091.7 983.6,1090 993,1062C996.4,1040.2 1004.3,1021.9 1009,1004C1015.8,986.3 1020.5,964.9 1028,950C1034.5,932.1 1048,921.6 1050,900C1060.9,874.4 1023.5,879.1 1002,879C977.9,878.8 952.4,879.5 932,882C907.5,881.8 883,883.4 861,884C839.4,886.5 814,885.1 792,887C768.9,890.7 748,891.1 731,897C718.7,909 700.9,917.3 693,932C688,940.4 660,978.2 682,956C693.3,948.4 708.6,922.5 716,927C703.2,938.4 691.7,953.1 681,965C669.3,977.8 661.2,995.8 653,1010C650.2,1018.7 626.1,1061 635,1037C647,1022.6 654.1,994.5 637,1027C628.8,1042.8 624.1,1064.1 618,1081C600.8,1127 620.3,1059.6 614,1073C599.5,1093.2 603.4,1107.3 624,1113C641.6,1120.7 667.5,1118.8 687,1122C709.6,1124.2 735.5,1120.9 757,1123C783.3,1115.8 796.3,1129.2 822,1126C848.4,1125.2 872.1,1127.6 894,1127C919.2,1127.2 941,1129.4 964,1130ZM1091,1127C1073,1127.3 1056.1,1125.3 1036,1126C1018.8,1127.3 995.3,1125.8 993,1117C1012.6,1117.4 1028,1120.9 1047,1119C1060.4,1127 1092.9,1112.3 1091,1127ZM709,1119C703.6,1102.7 711.1,1075 716,1060C722.8,1043.3 729,1025.6 738,1010C746.5,995 756,980.6 766,966C773.1,956.3 795.5,922.4 779,956C771.1,972.9 757.8,985.7 750,1001C740.2,1014.9 734.3,1033 727,1050C724.4,1067.5 709.3,1086.1 718,1105C758.5,1118 719.1,1117.6 709,1119ZM727,1099C720.1,1086.5 729.9,1065.8 731,1053C736.9,1039.2 743.6,1024.7 750,1014C757.6,1002 765.8,989 774,979C782.8,969.6 789.9,957.9 795,945C804.5,958.5 785.4,970.9 781,981C772.9,991.3 765.8,1005.4 758,1015C751.2,1027.4 742.8,1040.3 739,1054C734.1,1068 730.8,1083.5 727,1099ZM496,1051C537.2,1046.9 491.5,1045.6 478,1041C439.8,1038.5 483.7,1051.1 496,1051ZM873,1051C899.8,1049.1 932,1054.4 945,1047C926.3,1044.4 881,1044.9 873,1051ZM1217,1051C1234.6,1051.6 1250.6,1050.5 1265,1047C1289.2,1044.1 1287.9,1041.5 1265,1040C1248.5,1039.3 1231.9,1044 1216,1040C1206,1036.5 1182.9,1039.4 1172,1041C1162.8,1047.5 1139.6,1045.5 1126,1044C1097.9,1039.7 1100.1,1051.9 1126,1049C1143.4,1049.1 1159.9,1048.5 1173,1045C1189,1046.7 1205.9,1048.5 1217,1051ZM1328,1050C1350,1051.8 1367.2,1048.3 1388,1049C1391.4,1046.9 1397.9,1048.2 1400,1045C1380.8,1049.1 1373.6,1045.3 1370,1042C1355.8,1040.1 1343.6,1042.2 1319,1042C1291.3,1041.6 1303.3,1053.3 1328,1050ZM0,1047C17,1048 38.1,1048 51,1047C72.4,1050.1 86.7,1045.9 93,1041C110.5,1040.1 127.3,1037.4 142,1041C174,1036.6 152.3,1035.1 135,1035C118.9,1031.5 100.2,1035 83,1035C73.8,1040.9 42.9,1035.8 45,1032C35.3,1029.4 16.9,1023.7 1,1027C-1.4,1029 0.7,1038.4 0,1040C21.4,1041.7 7.6,1037.7 0,1047ZM1024,1046C1043.7,1044.1 1057.8,1036.8 1068,1026C1090.9,1028.8 1114.6,1033.3 1081,1023C1070.9,1017.1 1026.4,1034.4 1050,1028C1070.3,1033.5 1024.8,1039.1 1024,1046ZM344,1042C365.8,1039.8 390.4,1044.2 406,1041C435.8,1047.7 429.8,1029.3 447,1022C483.2,1020.9 453.3,1003.8 433,1006C415.6,1005.4 385.1,1011.8 383,1009C359.9,1012.6 412.2,1023 415,1017C408.2,1021.5 417.3,1023.9 421,1020C449.3,1017.3 444.2,1021 425,1026C414.5,1039.9 403.2,1032 383,1036C380.4,1033 375,1032.4 370,1031C381.5,1044 347.2,1029.6 344,1042ZM28,1024C38.1,1026.2 41.4,1022.9 33,1019C51.5,1017.9 71.9,1018.6 90,1017C115.1,1013.3 142.5,1019.8 163,1014C181.1,1017.5 212.3,1015.8 232,1014C270.6,1021.9 275,1001 235,1005C211.8,1010.4 190.7,1009.4 168,1008C144.4,1004.6 117.3,1009.8 93,1009C69.4,1010.7 45.1,1017.5 23,1008C17.1,1007.2 12.6,1004.8 5,1005C-15.6,1026.7 26.9,1020.5 28,1024ZM1114,1024C1120.9,1023.3 1108.5,1017.9 1108,1017C1107.4,1012 1156.8,1023.6 1136,1014C1117.5,1009.8 1089.1,1007.3 1067,1010C1044,1005.1 998.3,1019.4 1044,1019C1068.6,1020.2 1098.1,1017.6 1114,1024ZM888,1022C902,1016.8 920.1,1019.5 936,1019C969,1014.1 920.3,1014.1 911,1013C894.5,1013.2 870.9,1009.1 857,1014C835.8,1020.2 879,1021.5 888,1022ZM1227,1022C1245.7,1011.1 1271.1,1026.2 1292,1019C1315.7,1022.1 1337.4,1019.4 1360,1019C1382.4,1022.3 1405.5,1017.7 1420,1014C1416.4,1006.1 1380,1014.2 1364,1010C1343.9,1006.9 1308,1014.3 1314,1006C1292.7,1005.4 1270.7,1010.4 1249,1008C1228.4,1007.6 1199.5,1003.2 1186,1013C1183.1,1023 1217.7,1011.9 1227,1022ZM537,1017C549.3,1011.4 584.5,1018.5 577,1014C559.5,1010 540.1,1012 523,1010C511.9,1009.3 468.2,1007.8 482,1014C501,1013.2 523.6,1011.5 537,1017ZM1450,929C1465,927.3 1505.5,905.8 1463,912C1441.4,918 1416.7,907.3 1393,911C1389.7,909 1379.8,910.4 1375,911C1346.9,915.6 1396.7,918 1404,918C1413.6,918.9 1412.2,922.2 1404,923C1422.7,918.4 1433.9,927 1450,929ZM493,924C486.6,914.3 517,914.5 529,915C546.7,915 553.5,902.3 572,905C571.1,907.1 546.2,912.4 542,920C528.1,923.5 504.8,919.8 493,924ZM550,923C551.3,905.7 595.5,918.5 614,912C636.6,908.3 663.5,908.6 681,900C669.8,906.8 652.1,920.5 626,919C603.6,923.3 571.3,917.6 550,923ZM385,916C374.8,908.5 405.3,906.7 415,905C429.2,903.1 451.2,902.2 461,907C479.1,911.1 436.4,911.2 430,910C414.2,910.9 398.4,912.2 385,916ZM727,915C721.9,911.1 756.5,879.7 735,905C725.8,915.2 755.5,891.2 767,894C787,892.6 810.1,893.5 828,894C850.9,892.9 868.1,898.5 888,897C913.9,892.4 934.1,898 897,901C877,900.9 855.6,899.3 837,898C816.4,899 792.3,897.7 775,900C755.7,901.3 737.9,906.4 727,915ZM383,910C367.2,901.1 328.3,909.7 330,887C337.7,904.6 375.9,897.9 383,910ZM478,903C455.1,904.4 439,896.1 426,887C421.8,869.6 416.5,850.4 412,833C411.9,815.3 390.2,787 402,821C405.2,829.4 416.1,874.6 408,858C402.5,842.6 396.2,824.4 392,807C386.1,791.2 380.1,774.9 367,765C350.2,760.4 322.8,764.7 306,766C292.2,773.8 292.9,738.1 286,726C281,709.5 275.8,690.3 270,675C264.3,658 259.3,638.6 254,622C249.6,604.6 243.7,586 239,569C233.5,553.5 228.5,559.3 226,528C221,511.1 214.8,492.8 209,477C203.8,460.5 200.8,441.2 194,425C188.1,409 184.5,388.2 178,372C173.5,355.7 167.3,339.7 163,321C174.9,324 205,323.8 221,326C263.2,333.9 224.1,320.4 208,320C190,323.3 176.9,296.5 181,294C190.3,298.1 208.4,329.1 213,311C206.5,295.5 204.2,273.3 174,281C147.1,280.6 201.6,269.3 204,282C208.8,291.2 223.3,329.3 222,315C217.4,297.8 211.1,281.8 204,266C196.2,253.2 193,227.9 172,232C166,247.4 137.9,257.9 172,258C215.5,267.3 150,261.8 151,262C158,272 213.7,261.8 173,271C147.3,286.7 140.6,263 142,246C137.7,229.6 134.1,210.9 123,199C119.8,185.6 144.7,215.1 142,227C144.9,253.7 156.1,259.2 164,234C175.9,214.6 200.8,227.1 203,243C209.1,259.7 215.7,277.6 221,293C222.5,312.6 244.4,336.2 231,302C227.7,292.6 209.4,253.1 227,280C238.2,292.3 235.3,319.6 250,325C272.4,342.9 266.3,341.7 237,335C218.8,332 193.5,332.8 176,329C160.6,315.7 175.6,363.8 198,345C217.3,339.6 232.3,355.9 252,354C278,352.9 291.7,374 258,361C236.7,360.4 219.3,353.3 198,353C162,342.4 187.5,367.7 187,384C192.6,402.2 199.3,420 204,435C209.9,452.7 213.5,471.4 221,486C216.9,467.6 212.7,447.3 207,432C201.1,415.6 198.6,395.8 192,379C177.1,348.9 217.7,365.7 231,365C246.9,372.3 278,365.7 285,379C294.8,392.6 302.9,408.9 307,425C315.6,467.8 305,427.9 300,424C305.6,442.2 311.5,460.7 316,477C320.9,494.6 324.9,512.9 330,529C341.8,557.4 318.4,536.8 320,518C315.2,500.8 310.9,482.9 306,465C302.1,446.7 295.6,428.8 293,410C296.4,388.3 276.2,376.5 261,383C273.5,393.2 273.3,417.9 281,430C286.9,442.5 292.4,473 297,471C293,453.2 287.2,434.6 282,417C280.8,400.8 260.8,374.9 284,398C287.9,417.4 293.6,436.2 297,453C302.1,471 306.3,489.2 311,506C309.7,521.3 335.9,555.6 311,536C306.1,515.6 302.1,497.5 294,495C290.5,476.3 284.5,457.9 279,442C272.4,426.6 268.8,407.9 262,392C247.8,357.2 259.3,398.3 264,408C271,425 275,443.3 281,459C287.7,475.5 292.7,495 298,510C306.8,533.9 306.3,549.1 294,519C289.2,502.1 283,483.8 277,468C272.4,450.7 266.4,432.2 261,416C250.1,405.1 255.3,373.6 240,371C232,367.6 235.3,373.2 239,374C248.6,401.4 236.6,373.7 226,372C207.8,368.6 241.9,393.1 244,399C248.9,417.5 256.5,432.2 261,450C267.3,466.3 272.7,485.4 279,500C283.3,516 289.2,537.9 298,542C285.9,532.3 255.6,538.2 237,534C224.5,541.1 268.5,544.2 281,543C300.2,550.4 324.2,545.1 343,547C364.2,547 393.7,545.3 390,561C375.6,554.5 346.9,558.7 329,555C306.8,555.5 285.7,554.3 264,552L246,552C224.8,538.3 235.6,567 253,560C270.2,566 304.6,553.8 303,577C310.2,593.1 314.2,613.7 320,628C325,646.2 331,662.4 336,678C336.2,702.1 355,707.9 363,720C371.2,729.5 392.6,759 370,734C366.9,725.3 334.6,695.7 353,718C362.5,732.1 374.3,742.6 383,756C394.8,767 404.3,782 415,792C424.9,804.7 435.3,816.6 450,824C467.5,836.9 490.2,824 495,811C506.2,805.6 459.2,785.9 480,813C476.1,836.6 449,815.6 451,801L451,784C457.7,781.7 456.8,774.1 451,767C466.5,775 464.2,801.8 469,817C481.4,823.8 467.1,785 466,774C469.7,757 410.2,768 425,762C447.9,761.6 468.7,759.5 487,765C504,779.5 491.9,812.2 477,784C470.2,760.4 471.9,817.3 497,797C516.2,781.6 476.7,754.4 496,758C509.1,765.1 511.1,795.1 504,810C496.6,825.3 487.5,840.7 465,839C448.7,834 433.2,827.3 423,815C411.7,803.8 400.8,790.3 392,777C381.3,766.4 372.1,753.3 361,741C352.7,727.8 338.1,718 334,700C328.8,723.5 346.8,734.1 353,747C365.5,757.7 377.8,769.9 385,783C393.7,799.5 406.7,801.5 414,819C420,835.6 423,857.2 434,866C474.5,872.6 447.6,864.7 433,855C419.2,823.6 429.4,836.7 447,847C457.9,853.7 472.4,890 462,852C455.2,850.5 458.6,847.1 464,851C473.8,865.6 473.7,846.6 479,870C502.7,892.7 461.8,875.7 444,879C415.4,858.4 433.3,895.8 451,889C482.9,885.2 492.6,894.4 457,896C474.1,900.9 496.6,887.6 516,894C526.6,889.1 551.6,883.3 569,885C598,892.6 542,892.9 533,894C520.1,899.7 497.8,901.2 478,903ZM410,901C387.6,905.7 337.8,896.4 351,893C361.2,901 429.8,893.5 410,901ZM424,894C401.5,893.3 375.7,893 354,891C335.4,886.1 331,864.4 324,848C318.3,829.9 311.7,810.4 306,793C287.2,764.3 334.9,776.6 349,771C378,767.5 368.4,803.3 379,815C385.8,833 392.4,852.6 398,869C419.4,887.2 363.1,882.5 354,878C339.1,869.9 336.1,848.9 329,831C325.8,822 313.4,776.4 312,795C318,814.7 324.6,834.1 330,851C337.7,868.3 344.2,887.9 367,887C387.6,884.4 436.7,895 406,875C398.5,859 393.2,838.2 387,821C382,813.9 368.2,760.3 380,793C387.5,810.7 392.7,831.7 399,847C405.3,865.8 413.3,881.9 424,894ZM883,892C876.8,892.6 866,891.3 865,889C888.5,891.1 907.3,886.3 928,887C957.3,886.2 985.4,882.4 1011,887C1016.6,890.1 1027.7,886.8 1032,889L966,889C939,894.1 907.5,887.3 883,892ZM1059,888C1063.3,881.2 1059.7,862.1 1046,866C1043.8,872.7 1060.7,878.6 1059,888ZM524,887C493.7,895.5 482.2,869.6 489,849C491.8,845 501.5,847.8 504,843C514.3,819.1 511.7,864.8 520,866C527.4,864.5 506,827.5 522,815C524.1,810.4 524.3,803.7 525,798C528.9,764.4 532.4,812.8 533,820C531.8,840.7 548.6,872 541,876L520,876C482.7,874.1 522.2,875.3 525,870L505,870C493.5,851.4 487.6,851.4 497,874C505.4,885.3 571.1,876.6 524,887ZM609,887C581.8,891.1 562.2,878.7 600,880C626.5,872.6 573.3,878.3 569,879C549,879.1 551.7,853.6 546,839C541.9,823.2 538.1,804.2 534,788C534.2,783.6 532.2,777.4 532,774C533.1,767 519.7,765.8 541,758C562.4,756.8 562.1,756.9 585,752C604.9,753.1 630.2,750.6 642,757C643.1,777.8 655.7,804 649,767C650.3,761.3 645.7,757.7 646,753C623.2,746.7 664.9,751.5 654,767C655.1,783.8 674.4,810.1 645,801C599,797.8 676.9,800.5 653,792C639.2,788.6 607.6,805.3 612,790C612.9,780.5 598.3,736.3 600,766C604.9,782.7 609.4,801 613,816C618.3,832.3 620,853.4 630,862C642,869.7 621.7,837.7 623,826C612.7,802 623,791.7 630,820C636.9,833.2 630.6,865.1 651,858C668.4,849.6 632,848.4 639,826C627.4,797.8 634,807.2 646,822C668.4,822.6 663.8,848.6 675,858C671.2,874.9 728.8,865.3 707,874C686.1,874.2 670.4,881.3 649,879C646.4,877.1 641.4,873.9 637,874C615.3,866.1 645.3,875.2 655,874C688.2,873.6 685,863 653,869C626.3,875.1 616.3,862.2 613,846C609,829.4 604.7,810.9 600,795C592.6,782.8 604.3,748.3 577,756C583.1,752.3 592.4,778.8 592,794C596.3,811.9 601.2,829.8 604,846C608.1,863.1 611.3,882.7 635,878C671,884.2 615.5,883.7 609,887ZM574,870C612,865.8 590.6,868.5 574,861C569.7,846.7 565.9,830.9 561,815C561.2,790.8 574.8,829.3 574,838C575.3,855.2 592.5,877.3 582,846C584.2,831.6 562,806.5 585,806C590.7,788.9 561.5,803.4 546,798C537.7,791.5 551,824.7 550,835C556.8,848.9 552,873.4 574,870ZM726,870C699.8,867.1 680.7,856.2 678,828C673.8,803.1 663.7,783.1 662,754C659,752 645.6,747.8 658,750C679.3,749.6 700.5,748.5 720,745C749,744.7 775.2,740.9 804,740C832.5,738.2 862.5,738.2 889,735C917.7,733.4 947.3,733 974,730C1020,714.1 997.7,750.3 1008,776C1009.7,809.9 1003.7,737.8 993,734C987.4,735.4 979.4,735.1 973,736C947.2,762.1 994.6,730.8 996,752C998.8,772 1010.3,811.1 1006,816C1000.8,808.5 999.5,821.6 991,819C985.8,819.3 980,821.5 978,817C976.6,814.3 966.9,830.3 966,802C966,785.5 960.5,727 955,747C962.6,769.7 956.3,806 970,821C995.2,821.1 1028,824.6 1049,828C1092.4,813.1 1045,846.7 1020,838C990,847.5 969.7,833.4 941,834C933.7,834.7 924.8,833.5 919,835C895.3,844.2 875.5,823.4 887,813C890.9,838.4 938.7,825.1 956,831C982.5,839.5 1012.6,828 1038,831C1018.8,818.8 982.4,835.3 959,826C940.8,807 953.3,781.9 952,753C931.7,705 955.6,801.4 943,777C950.2,752.1 922.1,716.8 909,753C910.6,759.5 910.3,767.5 911,774C917.6,813.5 916.4,760.1 916,748C942.5,753.2 920.6,790.2 923,813C919.8,820.7 934.1,827.6 924,825C901.9,830.8 917,789.3 907,777C905.3,772.5 906.2,763.9 903,758C919.9,730.2 855.1,740.7 878,748C905.7,728.1 911.6,810.9 888,781C882.4,775.9 888.5,791 891,792C925.8,795.9 890.1,818.3 882,798C874.9,784.6 869.9,734.4 860,745C855.5,757.4 867.3,791.8 870,812C873.7,817 873,825.4 875,830C882.4,836.1 871.1,833.9 870,831C869.8,810.6 857.2,809 866,830C903.8,844.7 828.7,847.2 821,837C814.2,814.4 808.5,790.1 802,766C785,729.5 836.5,762.4 837,775C852.4,778.9 847.5,843.6 857,824C854.5,797.2 847.3,774.4 844,747C818.2,744 789.7,746.6 763,748C717.1,737.7 752.6,776.3 750,797C757.9,819 750.1,860.5 790,844C799.4,844.4 805.6,843.3 797,838C793.4,825.8 760.3,859.1 762,824C757.8,801.9 750.9,770.7 748,756C785.6,745.8 796.3,762 797,792C796.5,808.4 823.1,856.1 803,844C812,848.4 747.6,865.4 749,839C745.8,813.3 739.7,789.4 734,765C721.5,726.8 736.1,796.4 738,807C741.1,812.1 740.7,820.2 741,826C741.9,845.4 734.6,798.2 732,790C730.9,784.9 730.9,777.3 729,771C726,732.9 715.7,757.9 725,780C727,786.3 726.3,794.7 729,799C729.2,809.4 744.2,853.4 731,838C730.5,831.3 729,820.6 729,835C724,866.5 720.9,818.9 720,806C719,786.5 719.6,729.5 693,761C692.4,766.9 689.5,764.5 686,772C680.8,783.4 694.4,731.4 676,770C671.8,793.9 683.8,820.7 689,842C706.6,869.1 680.9,814.5 686,798C687.9,792.1 690.3,786.7 690,779C695.6,748.6 697.7,780.7 699,801C712.4,820.4 681.8,872 708,833C711.7,807.8 701.8,783.2 700,756C719,759.8 709.3,804 717,824C718.6,833 715.9,838 716,846C684.7,864.6 726.1,846.9 739,853C749.2,859.6 734,857.1 727,857C691.1,867.3 741.5,863.3 753,860C758.2,863.1 769.3,859.7 774,862C756.9,853.3 806,859 815,852C823.4,851.9 830.3,852.7 837,853C869.7,865.5 816.4,854.9 806,861C778.8,863.6 752,868 726,870ZM572,866C550.9,857.8 557.2,821.5 546,802C562.2,816.5 559.2,849.5 572,866ZM317,857C309.9,847.3 306.7,832.4 299,821C294,809.1 291.2,793.9 286,780C281.4,767.8 277.8,753.3 273,739C268.4,727.3 265.8,710.4 261,699C256.3,686.2 253.1,671.3 248,658C243.7,644.8 240.8,629.6 235,617C232,602.5 227.4,589 222,576C220.3,560.7 214.7,546.8 210,534C207.5,520.2 202.4,507.3 199,492C193.7,480 190.9,464.8 186,451C182.4,437.3 177.8,423.9 173,410C169.8,396.5 164.2,382.5 160,370C157.6,355.4 155.3,339.7 150,326C145.9,313.6 141.9,298.2 137,286C134,272.3 131.1,257.1 127,243C124.4,229.6 114.4,217 115,204C128.7,209.4 129.3,226.8 133,240C139.3,252.9 137,273.2 144,284C151,295.2 152.5,311.6 158,324C161.1,338.4 166,353.1 169,365C172.4,380.4 178.5,392.4 181,407C185.5,421.4 190.1,434.7 194,448C198,462.9 202.1,476.7 205,491C209.4,504.8 215.1,518.8 217,532C222.8,544.7 225.7,559.9 230,573C235.7,585.9 238.5,601.1 243,614C246.9,628.7 252,641.6 255,655C260,668.9 264.3,684.3 267,696C272.4,709.9 275.6,724.7 280,738C283.8,751.9 289.4,765.8 293,777C298.2,790.8 302.2,804.8 307,817C309.6,831.2 319,845.7 317,857ZM866,855C853.5,857.2 826.6,849.3 834,847C848.1,850.1 867.4,848.7 878,844C891.5,843.5 916.8,849 911,853C897.9,851.1 879,852.4 866,855ZM1000,849C997.2,842.8 1046.9,848.1 1058,838C1072.9,825.7 1108.4,833.7 1112,810C1125.1,827 1091.7,837.9 1072,839C1050.1,844.8 1025.6,847.8 1000,849ZM937,847C918.4,849.7 904.1,845.2 893,840C897.1,838 924.6,844.2 934,839C949.3,836.2 969.7,838.6 978,843C972.7,847.4 946.6,842 937,847ZM799,840C800.3,819.5 792.6,792.4 788,771C789.8,790.5 792.1,823.1 799,840ZM1103,840C1075.9,840.1 1119.6,833.5 1121,829C1132.8,823.6 1155.7,826.9 1154,810C1159.8,788.8 1159,838.2 1144,829C1133,835.4 1115.4,837.3 1103,840ZM830,837C882.4,839.9 845.6,824.6 826,828C825.6,822.1 822.6,815.3 821,811C815.3,785 820.7,839.7 830,837ZM500,833C509,825.2 515.3,779 518,780C527.3,751.5 511.2,731.9 502,713C494.5,692.2 482,673.6 470,657C460.1,638.3 448.3,620.9 439,600C434.9,583 400.1,548.5 437,573C438.3,584.6 459.4,644 452,606C450.6,601.2 447.5,596.5 447,588C445.8,562.2 457.5,610.9 459,617C458.5,629.9 486.6,683.6 478,644C480.6,622.7 488.7,580.9 469,572C464,570.5 455.3,569.3 450,569C437.8,563 487.3,568 492,572C499.2,594.9 503,622.3 509,644C514.5,667.9 519.7,691.9 527,713C521,751.3 559.2,741.6 583,738C612.3,737.5 637,733 666,732C690.6,728.3 722.1,730.6 747,726C762.5,723.5 826.2,728.3 807,720C802.4,717.3 794.9,717.1 794,709C784.3,679.1 786.6,688.2 788,714C782.7,691.2 778.1,666.6 774,641C772.2,635.7 770.8,629.4 770,622C762.3,575 780.4,655 774,614C772.7,608.9 769.5,602.3 770,596C750.4,570.4 791.4,588.7 807,583C845.5,575.2 829.7,622.1 838,641C841.7,665.5 848.7,692.2 847,714C831.3,712.2 835,668.6 828,650C822.8,632.9 823.1,586.9 811,592C817.6,616 820.9,643.8 825,667C826,685.4 846.5,738.2 821,702C816.7,699.2 816.2,691.9 811,689C787.5,665.5 802.1,693.1 812,702C813.1,723.6 831.9,722.6 864,720C891.1,717.5 920.9,716.3 947,714C973.3,711.5 1004.1,713.1 1029,709C1052.6,710.2 1092.6,712.1 1073,673C1070.2,647.9 1068.5,620.5 1062,597C1062.6,626.8 1068,652.5 1071,677C1075.9,733 1064.3,672.5 1064,653C1064.9,639.8 1054.5,567.5 1054,613C1057.7,639 1061.6,664.3 1063,691C1063.3,696.4 1069.7,709.4 1063,702C1061.3,695.7 1019,714.3 1026,694C1025.6,687.7 1023.8,679.6 1023,675C1017.3,659.2 1030.2,728.4 1017,695C1016.6,688.3 1014.8,682.3 1014,675C1012.9,671.3 1013.4,662.6 1011,660C1006.8,632.6 1011.1,669.2 1011,678C1013.4,684.3 1013.9,693.6 1014,698C1019.2,705.8 1007.6,703.8 1010,698C1009.1,672.7 1004.5,677.4 1008,700C998.3,706.4 1007.2,652.8 1001,636C1004.6,606.1 979.6,575.9 1027,590C1045.8,599.6 1105.3,575.8 1094,609C1089.9,634.3 1088.2,661.8 1083,686C1082.9,733.6 1095.8,661.5 1094,649C1095.7,643.9 1096.2,634.6 1096,630C1098.3,626.3 1097.7,617.6 1099,615C1100.9,584.8 1103.8,608.7 1100,624C1096.5,650 1094.5,677.1 1090,702C1098.7,715.3 1100.7,662.7 1103,645C1104.5,629.8 1106,564.8 1125,601C1123,628.9 1120,655 1119,684C1131,727 1083.8,706.1 1063,713C1045.4,725.4 1013,712.2 987,720C961.1,723.3 928.2,721.5 905,726C876,726.4 848.5,728.1 822,731C791.4,729.7 767.4,736.8 738,735C712.1,738.7 683.4,739.1 657,741C630,744.4 599.4,744.9 574,748C544.6,753.9 515.4,755.4 519,721C514.4,696.8 509.7,670.4 504,648C499.4,623.4 493.6,600.1 488,576C489.9,568.9 470.7,570.5 483,573C487.5,591.1 486.2,616.1 491,631C495,656.6 499.4,681.3 506,703C509.2,727.5 532.3,740.1 523,768C521.6,796.3 515.4,819.2 500,833ZM1078,826C1080.7,818.4 1082.5,793.1 1086,781C1088.9,765.1 1086.8,741.7 1099,736C1121.2,730.6 1071.2,721.4 1085,747C1080.1,780.6 1081.3,753.9 1083,735C1080.1,707.9 1077.2,755.4 1076,762C1072.6,777.7 1071.6,795.6 1068,811C1066.6,826.4 1037.3,826.3 1027,820C1020.3,808.4 1017.5,792.4 1014,776C1015.3,761.8 1002.4,738.3 1013,730C1011.4,746.8 1018.7,763.6 1018,780C1023.7,816.3 1022.1,768.5 1019,759C1016.1,743.2 1010.1,721.5 1035,726C1054.7,728.2 1075.7,723.4 1085,723C1105,722.9 1123,723.7 1114,750C1117.2,767.2 1110.7,786.1 1109,801C1115.7,826 1089.7,818.8 1078,826ZM942,824C919.9,827.2 938.7,800.4 936,784C941,761.1 938.7,816.5 942,824ZM1122,824C1131.6,815.6 1112.8,757.5 1139,771C1162.2,771.3 1200.4,769.4 1211,770C1215.3,767.4 1224.3,769.6 1230,768C1269.1,769 1230.9,778.8 1234,779C1246.6,809.5 1221.1,819.7 1202,820C1211.3,808.3 1212.6,753.2 1197,779C1179.4,759.6 1211.5,830 1176,819C1144.7,836.1 1186.6,767.7 1157,777C1154.2,801.9 1151.9,828.2 1122,824ZM982,817C992.8,821.1 976.2,779.3 978,763C972.8,755.5 981.1,805.4 982,817ZM1040,817C1062.6,818 1072.1,806.2 1042,812C1028,809.9 1033.1,785.2 1028,774C1027,757.9 1020.4,736.5 1042,740C1066.7,748.8 1065.6,718.5 1069,743C1075.5,775.6 1073.3,729.6 1073,726C1063.8,734.1 1039.2,729 1028,734C1017.4,742.9 1027.3,767.5 1026,779C1030.6,792 1025.6,816.5 1040,817ZM1135,812C1145.2,807.8 1136.3,784.7 1136,776C1130.1,781.5 1137.9,806.5 1135,812ZM441,811C430.1,806.8 427.9,793.5 426,779C417.9,776.8 402.7,774.9 405,767C416.9,771 439.9,763.6 438,780C426.3,786.6 433.6,805.9 441,811ZM443,803C430.9,796.8 444.9,780 439,767C446.2,758.9 448.9,795.5 443,803ZM1258,803C1270.3,801.3 1251.7,768.1 1271,772C1249.5,767.8 1257.8,791.1 1258,803ZM550,792C555.3,790.4 548.3,763.4 542,759C538.2,760.8 546,787.1 550,792ZM504,762C499.2,745.9 471.3,758.9 453,756C436.4,756.9 411.7,758.6 398,758C386.2,750.9 383.7,731.4 379,717C375.8,700.9 371.6,683.1 367,668C365.1,650.6 361.3,633.8 356,618C352.7,601.9 348.3,584.3 345,568C348.3,557 354.6,593.1 357,601C360.6,618.5 365.5,635.7 369,650C371.6,668.5 377.1,683.6 380,700C383.7,717.6 387.6,735.7 393,748C393.6,732.5 385.9,715.3 384,699C380.5,683.3 376.2,665.6 372,650C369.6,633.9 365.6,615.8 361,601C366.9,586.7 338.5,560.5 360,565C385.4,560.3 383.4,584.4 388,597C391.1,615 396.8,631.4 399,646C404.2,662.9 409.3,678.4 412,695C417.8,710.5 422,728.3 425,743C451.8,760.7 425.7,740.8 426,725C423.3,708.7 418.3,691.6 414,677C410.2,660.8 406,644.4 401,628C397.9,611.9 392.3,595.5 389,579C375,551.3 395.8,566.1 396,585C400,601 405.2,617.8 408,632C413.2,648.8 417.7,664.9 421,681C426,697.2 431.2,714 434,729C430.4,751.1 459.5,750.7 473,745C469.5,748 463.3,729.8 466,709C460.3,691.8 456,669.2 469,695C476.2,708.6 477.2,729.7 483,741C500.7,759 471.1,705.9 484,721C490.5,735.5 498.7,749.4 504,762ZM304,754C321.7,756.9 366.1,751.7 333,747C310.8,759.4 285.3,726.3 304,754ZM1184,748C1132.1,747.1 1209.5,740.3 1225,743C1252.8,741.1 1284.2,741.4 1310,739C1362.6,740.9 1283.5,745.9 1269,744C1238.9,743.9 1212,748.1 1184,748ZM464,744C459.9,743.5 457.4,740.9 456,736C452.7,716.3 456,758.3 450,727C447.3,711.3 442.5,694.9 438,681C433.7,663.8 432.4,637.2 439,669C442.4,678.2 451,721.2 447,689C445.3,671.5 439.2,658 433,644C419.9,615.4 440.4,640.7 442,651C449.7,663.8 458.2,677.1 455,695C458.6,711.3 458.5,732.6 464,744ZM448,743C437.4,736.2 439,714.2 433,703C429.4,689.1 426,674.6 421,660C418.7,645.6 413.8,630.1 410,617C407.2,602 401.6,589.7 398,574C407.2,584.3 411.5,600.5 417,610C421.6,624.9 424.2,640.4 428,654C431,669.9 435.1,686.2 438,699C442.9,713 443.9,730 448,743ZM547,739C532.4,737.2 536.5,713.6 531,703C526.1,690.8 521.8,675.5 519,662C515.4,648.8 510.3,634.3 510,618C502.8,589.2 510.1,629.1 529,618C564.4,617.5 518.1,629.4 514,622C514.7,634.8 521.4,650.7 523,663C527.1,677 531,692.7 536,703C540.4,713.3 544,738 547,739ZM379,738C373,725.4 368.5,711.1 366,694C362,679.9 358.4,664.6 354,649C351.6,633.7 345.8,620.6 343,604C337.2,592.1 338.5,570.4 329,563C346.3,564.8 341.6,588.4 347,601C351.7,616 355.4,631.2 360,645C362.4,661.9 366.1,677.1 370,691C374.3,706 376.5,724.2 379,738ZM595,736C581.4,730.5 584.5,705.5 578,693C576.2,675.7 572.1,660 568,644C565.3,627.1 560.7,609.6 558,594C555.4,565.9 547.5,574.4 537,573C531,568.5 572.9,568.8 563,590C566.5,606.5 569.4,623.3 573,639C577.4,655.1 580.9,673.5 583,689C587.2,705.4 588.8,723.5 595,736ZM606,735C589.6,731.2 594.4,705 588,689C601.1,698.4 597.4,723.5 606,735ZM560,734C541,730.6 547.5,700.9 537,687C532.6,671.1 525.9,650.7 524,635C552.8,634.8 561.5,632.3 549,606C553,580.2 518.7,590 505,582C488,571.4 540.3,576.5 546,582C555.3,596.1 556.5,619.5 559,637C561.9,657.7 568.5,675.6 570,694C578.9,716.1 581,732.6 560,734ZM648,731C633.4,727.3 636.4,705.5 631,691C633.1,671 624.9,660.4 622,644C624.5,624.6 613.6,610.5 595,622C584.6,626.1 619.8,630.4 613,646C616.1,662.8 620.3,677.4 624,691C624.8,700.2 639,736.5 626,723C609.7,741.2 604.4,714 603,700C593.1,692.3 592.5,672.5 587,660C583.8,645.8 578.7,632 576,615C577,617.2 611.8,611.8 614,613C623.2,594.7 596.1,596.8 588,587C569.4,590.8 551.4,571.4 577,577C595.7,577.7 619.5,572.8 618,592C622.3,607.7 625.1,623.8 627,640C630.9,655.7 635.3,670.2 637,686C640.5,702 641.3,721.6 648,731ZM667,729C646.3,733.7 653.4,710.3 648,699C645.4,685.8 642.3,672.5 640,658C637.5,644.8 633.9,632.1 631,618C627.8,605.6 625.8,591.4 622,578C618.6,570.9 639.6,581.7 653,576C669.2,577.9 685.5,571.1 698,577C710.5,580.7 728.7,581.2 741,579C758.8,573.2 772.1,586.6 743,581C730.2,584.5 737.9,608.5 713,600C704.7,576.1 709.5,612 712,619C716.1,632.2 717.5,647 718,662C720.6,676.5 725.1,688.3 729,700C721.8,717.1 754.4,727.3 729,721C727.5,718.5 723.3,718.4 723,713C723,690.5 719,708.2 718,700C714.8,688.3 713.5,673.3 709,660C708,646.2 705.3,632.7 703,618C697.6,609.6 707.1,582.9 698,582C700.5,589.6 678.4,573.7 664,582C650.5,587.3 626,576.2 628,582C632.2,595.2 634.2,609.5 637,622C641.1,632.5 662.7,622.6 672,621C673.8,635.9 676.9,649.1 678,663C681.9,676.6 683.1,691.7 685,705C676.2,725.4 718.5,723.9 694,714C692,700.9 693.6,682.9 693,667C688.3,655.7 682.6,645.1 681,630C670.4,613.3 688.5,605 690,597C691.1,565.7 694.9,604.8 695,613C697.9,627.2 700.4,641 703,654C704.4,669.6 708.2,682.1 711,695C706.3,710.3 729,726.9 709,722C696.7,725.9 675.5,720.9 667,729ZM744,720C734.3,713.9 737.4,694.5 731,684C725.3,671.9 731.5,653.4 735,645C737.9,632.2 743.1,619.5 745,608C747,598.4 752.2,567.1 757,592C757.8,608.5 762,620.6 763,635C766.3,648.2 769.4,663.1 771,675C774.2,687.9 777,703 779,714C774.9,716.7 754.3,722.2 744,720ZM699,716C711.1,712.3 703.9,691 702,682C700.4,687.1 699,706.3 699,716ZM884,712C861.6,719.6 860.3,703 860,689C857.4,676.2 855.5,660.2 853,648C850.4,635.6 847.9,620.2 847,606C849.8,591.3 828.5,577.5 851,586C864.5,588.6 865.4,605.6 871,613C876.3,624.4 880.8,637.8 882,650C883.7,664.5 887,679.2 888,691C886.5,709.9 909.7,714.4 884,712ZM366,711C356.4,703.9 353.5,689.6 349,676C345.6,663.9 342.5,648.2 338,637C335.9,622.8 329.6,612 326,597C322.2,585.7 320.4,568.7 309,564C332.9,558.6 330,578.6 334,591C335.8,606.4 340.6,620.4 343,632C347.2,645.8 350.7,659.4 354,672C357.9,685.9 361.4,701.2 366,711ZM946,711C925.2,704.3 933,667 927,646C931.2,628.1 903.3,583 938,587C969.4,584.6 996.8,586.6 987,622C988.2,648.9 989.9,674.6 991,700C990.6,697 941.6,725.5 951,685C947.4,661.5 944.1,635.3 941,612C927.5,569.6 938.1,637 939,648C943.8,669.5 949.8,701.6 946,711ZM912,709C884.9,714.5 898.7,677.6 889,663C886.9,643.1 882.4,624.5 878,605C875.8,601.9 874.8,596.9 871,594C849.3,581.1 871.7,586.1 889,586C918,581.2 905.9,616.4 911,633C913.4,655.2 916.7,675 919,695C916.7,720.4 912.4,667.4 905,663C901,644.7 882.5,622.1 897,655C903.7,672.5 907.1,692.3 912,709ZM966,704C973.1,701.5 964.5,670.1 963,657C957.6,659.3 965.4,691.4 966,704ZM954,677C955.4,665.1 951.7,647.6 950,636C947.3,623.8 946.8,608.9 942,597C940,611.3 946.9,625.6 947,637C950.1,650.6 952.3,663.8 954,677ZM338,659C332.6,645.1 327.5,628.2 322,614C316.9,600.4 312.4,582.8 308,568C318.7,578.1 318.9,600 325,612C329.2,628.1 334.5,644.8 338,659ZM695,657C695.5,642.3 693.9,619.7 687,609C686,625.1 691.8,644.8 695,657ZM727,648C727.4,627.4 740.1,607.2 744,585C742.3,603.2 733.9,627.7 727,648ZM905,646C907.9,634.1 896.8,620.2 891,609C889.4,621 900.5,634.9 905,646ZM720,636C718.1,628.1 707.6,606.2 726,609C730.4,607.6 720.8,628.3 720,636ZM465,622C458.1,607.2 461.9,575.4 448,570C474.8,568.5 465.3,604 465,622ZM1068,582C1043.1,579 1015.1,576.7 987,577C959.2,577.2 932.1,576.1 905,574C879.3,577.8 852.8,571.5 824,573C796.2,574 769.7,569.8 744,570C716.1,570.5 689.6,566.7 660,568C636,564.8 606.8,565.8 578,565C553.1,562.9 524.8,562.9 496,563C470.3,560.8 440.3,562.6 416,558C402,543.9 393.9,521.7 383,505C372.3,487.8 362.3,469.6 352,451C340.8,434.5 331.9,415.1 321,397C308.3,374.9 292.2,361.7 327,380C364.3,411.4 289.1,362.4 316,383C329.2,398.6 337.7,418.3 348,435C359,453.6 369.2,471.7 379,489C396.3,504.8 369.3,458.6 365,450C357.8,429.5 341.5,413.3 338,393C340.6,393.5 349.9,396.5 352,398C359.8,386 363.1,408.4 367,425C372.3,449.2 379.1,470.8 387,491C388.4,501.8 412.1,557.7 402,519C395.3,496.8 389.5,473.7 381,456C377.1,432.9 372.9,408.8 365,388C351.9,385.6 365.6,386.3 369,388C380.3,387.1 378.5,420.5 384,430C391.7,451.7 395,476.7 401,498C401.3,505.6 404.4,512.4 405,516C413.1,544.5 404.5,493.3 402,486C396.2,463.9 390.5,441.3 384,419C387.6,387.7 368.8,378.2 339,379C331.6,370.3 379.2,385.3 396,384C421.7,387.5 454.7,384.7 450,416C455.1,439.8 461.5,461.7 466,484C467.9,496.3 483.7,553.7 473,532C468.5,508.6 462.8,486 457,462C452.2,439.7 446.9,414.7 439,394C423.9,394.7 377.2,375.9 384,396C389,419.7 395.2,441.8 399,465C412.7,512.8 403,458.1 398,441C393.2,405.7 409,470.3 411,478C421.8,490.9 415.9,540.8 437,527C470.9,545.2 469.6,531.5 441,518C434.6,515.7 431.7,508.6 434,518C429.2,532.7 421.6,494.5 420,484C414.2,462.3 407.7,438.5 402,416C386.5,376.9 407.1,385.6 410,419C415.8,441.8 421.4,464.5 426,487C428.9,492.2 430,501 432,504C438.6,514.4 429.7,474.3 426,466C424.7,448.7 410.1,409.8 414,408C420.2,431 425.5,453.9 432,475C447.6,513.8 432.4,450.2 429,439C413.6,408.8 434.8,387.4 437,432C454.3,479.1 428.6,373.9 442,415C448.6,437.3 452.3,461.8 457,484C458.4,500.4 476.4,544.4 465,541C448.7,547.5 409.1,546.7 416,515C410.3,485.6 406.3,567.7 433,551C462.9,550.3 486.2,555.2 515,554C545.3,555.2 567.2,556 595,556C621.8,561.1 650.6,554.2 675,559C700.8,564.1 729.3,558.7 754,563C780.2,565 807.8,563.4 831,565C856.6,569.4 890.5,564.7 911,568C962.6,578.8 873.3,539.9 923,561C952.4,560.4 979,566.4 1000,568C1027.8,562.7 1053,573.4 1080,568C1099.8,579.9 1154.8,553.1 1127,574C1122.8,576.9 1111.8,575.7 1107,576C1077.1,569.5 1077.4,583 1068,582ZM1125,568C1115.3,571.2 1126.5,559.1 1123,555C1121.5,512.4 1121.1,557.7 1114,567C1113.8,546.2 1118.2,516.5 1119,493C1114.5,454 1148.9,453.8 1135,495C1130.8,518.3 1134.3,551.3 1125,568ZM901,564C859.7,571.7 880.3,547 851,547C830.7,542.9 835.3,511.4 829,493C824.2,476 824.4,442.5 817,434C840.6,436.9 862.8,441.7 887,441C911.1,445 927.8,450.8 954,446C987,438.4 974.6,477.7 978,497C974.7,514.1 990.9,560.6 974,554C943.5,560 927.2,549.3 930,522C926.2,500.9 924.7,476.7 918,457C899.8,433.7 917.8,488.9 916,498C920.9,517.4 923.2,548.5 929,556C908.3,557.7 917.6,517.6 911,501C901.7,485.6 912.7,448.9 891,444C896.4,451.4 895.4,488.4 898,505C895.1,520.8 915.1,571.5 893,550C854.1,534.8 880.1,567.8 901,564ZM1054,561C1042.2,553.3 1011.6,554.6 1000,558C993.1,543.7 994.3,521.2 992,501C990.3,482.3 993.1,458 979,450C984.1,437.1 1000.8,475.7 1005,465C1002.8,463.8 996.8,456.2 1001,460C998.6,458.2 988.4,447.3 1014,453C1036.2,452.7 1047.9,466 1068,459C1089,459.5 1109.1,463 1103,483C1104.3,456.8 1117.4,448.1 1109,482C1105.8,500.2 1104.3,522.3 1101,540C1107.4,568.1 1077.9,556.5 1059,556C1054.6,540.1 1053.2,520.1 1049,502C1045.1,461.8 1047.3,509.4 1050,522C1053,557.9 1045.4,506.3 1044,497C1043.9,481.6 1038.4,451.6 1024,462C1040.4,468.6 1034.5,495.9 1041,510C1043.5,529.8 1044.4,550.3 1054,561ZM1107,561C1104,545.1 1110.1,527.7 1109,511C1112.9,496.8 1114.3,477.8 1117,464C1118.7,479.4 1114.1,498.2 1113,513C1110.5,528.3 1110,548.2 1107,561ZM813,560C796.7,559.7 775.5,563 763,556C752.7,550.3 756.2,527.2 750,516C748.8,501.6 744.6,486.1 743,471C744.5,463.3 742.4,444 739,430C739.9,423.2 731,428.4 735,430C738.9,455.9 727.9,415 725,429C732.5,439.5 734.3,457.3 736,470C738.7,486 742.2,502 743,516C744.1,533.6 755.7,552.7 731,545C710,546.9 695.7,550.9 716,540C719,525.4 723.5,510.4 726,497C725.9,458.6 736.8,521.1 734,496C732.6,480.4 729.8,463.7 729,448C727,417 721.5,441.3 720,457C716.2,471.3 714.7,489.3 711,501C706.8,514.6 708.4,535.8 703,546C689,541.8 704.2,563.4 721,552C747.7,550.2 754,560.8 725,559C706.8,560.2 688,559.4 690,541C687.7,526.6 683.7,511.1 682,496C680,481.6 675.7,466.4 676,450C683.8,437.3 663.8,411.1 676,416C691.3,418.9 709.2,420.7 722,423C738.1,424.8 755.5,427 770,428C784.9,430.8 802.9,432.4 810,441C812,457 814.9,472.1 817,487C818.3,504.1 822.2,519.8 822,534C832.6,557.9 818,563.6 817,538C817.5,530.3 808.7,493.1 808,513C812.1,527.6 812.6,545.1 819,556C819.1,569.7 805.6,540.2 793,545C777.1,545.8 745.8,540.5 770,551C783.4,555.8 806.9,551.8 813,560ZM990,558C985.1,545.7 986.2,527.5 983,513C984.3,495.8 981,480.3 982,464C987.2,476.4 985.9,494.8 987,510C988.3,526.1 989.6,543.5 990,558ZM626,554C610.5,553.5 616.5,531.2 610,520C608.2,507 604.9,494 603,479C600.2,466.1 596.4,453.6 595,438C595.7,429.9 584.7,401.3 591,408C598.5,418.1 597.7,435.2 601,447C604.3,461.1 607.4,474.3 609,488C612.8,492.8 616.4,531.2 618,510C618.5,494.1 614.4,481.9 612,468C605.5,454.3 612.8,439.6 612,424C618.1,398.5 600.2,436.6 603,417C616.3,409.5 575.2,404.9 608,407C624.6,407.4 634.9,413.3 649,415C658,434.1 642.7,410.7 644,433C639.3,444.7 637.6,459.4 635,473C631.7,486 629.6,500.2 626,513C627,526.1 618.4,545.4 626,554ZM689,554C662.8,551.7 683.3,501 668,488C665.9,462.9 658.7,441.9 655,416C670.9,430.1 667.7,463.6 673,484C681.4,505.3 678.1,536.9 689,554ZM867,550C869.3,535 864,516.9 861,504C858,489.4 856.9,472.5 853,457C842.4,429.1 849.7,466.6 851,477C851.4,486.4 861.4,517.8 853,513C849.9,498.6 843.3,484.8 838,473C832.8,451.3 826.5,450.2 833,475C837.6,489.6 845,502.5 849,514C858.1,524 861.8,538.3 867,550ZM1069,550L1087,550C1102.7,529 1089.1,549.7 1071,545C1058.2,535.7 1065.6,506 1060,488C1057.4,448.4 1046.7,475.2 1055,497C1061.2,514.2 1055.7,542 1069,550ZM543,549C522.3,545.7 487.7,555.4 480,537C476,517.4 473.2,495.4 469,474C463.7,455.2 459.9,434.1 453,415C454.1,408.9 451,403 451,398C427.5,382.5 462.9,391.8 460,406C464.7,426.8 469.3,447 475,465C481.7,475.1 475.1,536.5 483,491C497,472.3 475.8,523.1 484,533C489.6,553.5 535.4,532.6 543,549ZM565,549C535.6,551.3 547.6,509.8 537,493C533,470.7 528.4,447.8 523,425C523.9,418.1 521.5,413.6 520,407C508.1,384.3 536.1,413.8 529,429C534.9,451.7 539.1,474.9 543,497C547.4,519.1 548.3,555.9 579,537C585.6,514.1 574.1,495.6 570,471C555,454.7 582,421.4 565,410C561.5,418.6 556.2,451.6 552,471C553.4,479.4 552.5,488.4 551,492C553.9,530.7 549.8,479.7 545,473C543.8,452.5 529.3,424.1 538,407C546.9,406.3 547.9,412.1 549,417C552.7,451.4 561,429.9 552,408C550.8,404.1 541.9,406.1 537,403C509.6,395.7 559.4,403.3 568,403C598.1,389.4 587.1,464.1 582,411C583.1,407 568.2,406.2 569,408C586.1,412.9 580.4,439.2 587,452C592.4,475.1 598.6,496.4 601,520C621.1,555.8 590,548.7 565,549ZM1040,549C1042.3,534.5 1007.1,550.3 1006,533C993.3,551.6 1025.9,548.3 1040,549ZM650,547C620.1,553.6 635.8,534.9 651,537C675.4,524.6 666.5,550.1 650,547ZM345,545C331.7,535 332.6,507.9 326,491C322.5,471.2 317.6,452.1 312,433C312.4,416.9 327.9,456.3 334,462C342.9,478.2 352.3,492.9 361,507C366.1,522.8 393.9,547.3 357,541C337.7,537 344.7,506 335,491C329.7,464.9 320.9,451.8 330,488C336.5,506.5 338,529 345,545ZM954,545C994,534.6 929.1,546.8 942,522C940.1,502.9 938,483.6 934,465C920.6,443.4 934.6,492.8 933,501C942.1,514.2 929.8,547.9 954,545ZM586,542C604.6,538.8 590.3,497.8 590,479C582.8,488.8 585.3,525.6 586,542ZM1463,542C1509.3,547.4 1491.5,529.6 1456,536C1449.9,536.8 1444,533.7 1438,534C1409.7,537.7 1457.5,542 1463,542ZM763,538C770.7,527.5 815.5,545.7 794,525C781,530.4 758.4,545.6 770,518C774,502.3 780.4,488.9 784,473C789.9,467.1 791.5,501.3 795,509C793.6,531.2 811.7,547.4 802,515C798.9,499.8 796,481.5 792,468C791.9,453.5 795.8,418.8 781,447C781.3,466.2 772.5,478.5 770,493C766.9,531.8 755.7,480.7 765,486C769,470.9 777.4,458 776,439C777.4,435.6 776.9,436.8 783,435C758.6,434.2 780.1,432.5 770,448C767.7,479.5 762.3,472.6 766,446C763.2,412.3 758,475.1 754,460C756.8,446.8 745.3,412.5 745,439C749.8,455.3 751.8,473 754,489C758.3,505.4 759,525.9 763,538ZM523,536C511,532.4 481.1,538.5 493,515C495.8,500.2 498,482.8 498,468C501.7,453.5 504,436.2 504,420C501.4,386.1 501.3,434.8 500,441C500.1,454.3 492,487.4 493,453C495.6,439.9 498.6,419 497,407C487.5,410.4 492.4,438 487,447C485.3,477.3 477.7,429 484,425C472.7,432.2 482.2,397.7 475,399C485.4,400.4 480.3,397.4 475,398C464.9,389.1 492.2,396.5 498,396C516.1,394.6 515.9,402.2 518,421C516.8,405.7 508.7,394.2 487,399C490,400.2 519.7,400.7 513,419C517.9,431.6 519,450.1 522,462C525,477.3 527.1,494.8 531,506C534.6,527.5 539,534 523,536ZM568,533C553.6,534.5 561.9,510.2 558,498C564.5,491.8 556.1,462 561,466C565.6,478.6 569.1,493.1 572,504C572.5,512.3 588.2,535.3 568,533ZM637,533C637.2,522.4 642.2,508.4 642,495C643.3,470.3 646.9,476.5 649,496C651.6,504.9 652.4,531.9 659,524C659.4,509.3 656,497.3 653,484C649.7,472.4 649.7,455.9 653,443C660,447.5 656.9,469.4 660,479C663.8,491.7 668.2,504.7 666,518C672.5,538.5 644.8,530.6 637,533ZM498,531C504.3,516.3 542.5,537.3 528,519C518.3,506.9 498.1,514.8 498,531ZM879,523C878.2,501.5 875.8,473 869,455C868.4,478.8 874.7,503.5 879,523ZM694,504C699.7,487.6 689.8,472.7 690,453C684.4,431.1 714.4,424 689,424C668.2,407.5 687.3,441.5 684,455C686.6,472.3 691.5,487.1 694,504ZM812,498C811.9,482.9 808.1,461.1 797,453C799.3,474 806.2,487.6 812,498ZM1110,457C1093.7,454.3 1075.1,452.4 1054,452C1037.9,448.9 1018,446.8 1000,446C982.4,444 961.8,442.6 947,438C926.8,439.2 907.8,436.1 891,434C872.2,432.8 853.7,430.7 835,428C816.1,427.7 798.1,423.8 780,423C763,420.4 742.4,419 726,416C709.4,413.6 688.5,412.5 672,410C653.5,408.5 636.1,405.4 619,401C600.9,399.9 580.3,398.5 563,397C545.4,395 526.1,392.3 509,390C491.5,388.5 470.4,387.5 455,384C436.4,383.1 417.3,380.2 401,378C381,378.2 363.3,373.8 345,372C329.6,369.1 305.5,371.2 298,360C285.4,331.8 304.1,369.6 320,362C338.7,364.6 357.1,366.8 375,369C392.7,371.8 412.7,373.8 429,375C446.9,378 465.5,381.4 483,381C502,383.3 520.1,387.2 537,388C554,392.3 574.2,392.6 592,394C614,389 628.3,399.1 644,401C660.6,404.8 681.3,406 696,408C715.9,409.8 734.6,413.2 750,415C770.5,416.3 788.5,418.8 806,421C825.3,422.6 844.6,425.3 861,426C878.8,429.5 899.1,431.2 916,432C937.1,431.6 954.1,436.6 970,438C988.1,441.1 1009.7,441.4 1026,443C1043.2,446.4 1063.2,448.4 1082,447C1101,442.4 1117,449.1 1136,446C1167.3,451.9 1108.7,448.3 1110,457ZM1077,443C1049.7,444.3 1028.1,437.4 1004,435C990.6,433.8 930,433.9 952,426C978.4,428.1 1002.9,432.3 1027,433C1036.5,439.7 1100.8,436.8 1077,443ZM1293,433L1270,433C1260.1,433.2 1200.9,434.7 1230,430C1259.9,430.7 1288.7,428.3 1317,429L1341,429C1348.8,427.1 1409.5,427.1 1379,430C1350.5,431.2 1320.6,432.4 1293,433ZM1026,429C1005.5,429 984.8,426.9 968,424C949.2,423.6 929.2,419.3 911,424C897.1,417.8 875.2,416.9 858,414C839.4,412.9 822.5,409.2 803,407C818.3,405.1 840.8,411.1 857,411C875.2,414.3 894.8,415.3 912,417C933,418.6 952.5,421.9 970,423C988.5,425.8 1010,424.9 1026,429ZM903,426C878.3,428 857.7,422.5 835,421C815.3,418.2 793,416.4 772,412C749.4,412.1 729.8,407.6 707,406C686.9,402.6 662.9,402.5 645,396C668.1,397.6 692,399.9 712,402C733.9,404.9 755.3,407.4 776,410C798.7,412 819.8,414.9 840,417C861.9,420.8 884.9,421.8 903,426ZM1087,426C1101,424.8 1117.5,425.7 1132,425C1145.4,422.9 1163.1,425.1 1177,424C1193.7,424.9 1206,421.7 1222,423L1267,423C1280.6,420.4 1297.9,422.3 1312,421C1328.8,423 1342.8,419.8 1356,420C1372.5,422.3 1386.3,416.8 1400,420C1418.9,434.4 1402.4,412.8 1391,415C1375.4,415 1360.1,415.1 1346,416C1330.9,416.7 1314.5,415.8 1301,417L1254,417C1239.8,417.5 1222.8,417.7 1211,419L1164,419C1148.8,417.9 1134.8,421 1121,420L1074,420C1045.4,420 1082,426.9 1087,426ZM1463,402C1471.1,389.7 1485.6,378.1 1483,366C1478,350.7 1465.4,341.9 1456,329C1440.1,313.7 1461.1,351.4 1467,354C1481.4,368.6 1465.2,386.9 1463,402ZM1056,396C1037.1,394 1018,389.4 1000,387C983.9,389.5 956,382.9 947,381C968.2,377.7 989.3,384.2 1008,384C1022,389.1 1055.7,387.4 1056,396ZM700,394C682.5,395.8 669.7,391.4 651,392C636.2,391.3 621.7,387 609,384C626.4,384.6 639.6,388.5 657,388C670.9,391 689,391.6 700,394ZM605,392C577.8,391.7 553.7,387.5 528,384C504.7,380.3 477.8,377.8 453,375C430.1,370.9 403.3,369.4 379,365C356.3,361.2 325.4,360.3 309,353C334.6,353.1 359.1,359.2 384,361C408.7,364.9 435.3,367.7 457,371C484.2,373.4 508.4,377.5 533,380C557.6,384.4 586,385.5 605,392ZM698,360C676.5,360.6 655.7,361 684,353C705.7,350.2 708.4,346.1 698,360ZM609,357C593.9,354.7 574.2,354 559,352C544.8,348.5 522.3,350.7 514,342C510.6,329.9 519.5,310.9 516,294C532.6,276.3 525.5,288.2 522,307C523.2,309.7 523.3,274.7 549,289C564.5,290 592.2,282.9 590,298C587.4,313.9 583.3,330.1 579,343C559.4,360.3 593,351.2 590,335C594.3,321.4 592.4,299.2 599,289C620.3,281.6 635.5,291.6 623,309C624.8,332.5 632.7,281.6 635,291C632.3,307 628.1,320.8 623,334C622.6,364.8 610.3,351 619,331C620.5,322 621.9,293.9 610,290C608.8,304.9 622.4,319 617,334C614,355.8 597,349.6 609,357ZM738,356C702.5,370.5 714.6,310.2 721,318C719.5,327.5 723.7,330.2 730,330C746.7,330.1 714,310.4 721,300C722,272.8 764.3,294.3 785,285C815.8,286.2 778.6,306.5 784,326C790.2,365.1 736.3,343.2 762,317C761.7,310 764.9,306.3 763,298C762.9,274.6 750.9,317.6 753,313C736.5,273.5 745.1,305.4 748,329C746.1,333.9 745.1,339.6 740,342C705.4,336.8 726.4,352.8 738,356ZM560,349C583.1,344 578.1,310.7 587,291C574,306.6 575.8,336.7 560,349ZM608,344C609.2,330.4 615.6,304.9 599,324C582.2,349.5 606.2,327.2 608,344ZM482,342C461,336.2 426.9,337.9 412,329C386.8,323 365.4,329.9 338,324C313.9,320 281,324.5 277,299C259.1,275.4 313.5,287.3 334,284C362.4,284.4 385.4,290.7 414,286C439.6,284 469.8,285.9 491,279C518.2,249.7 494.3,349.2 498,291C487.2,288.7 497.9,347.5 482,342ZM685,342C671,339.3 680.4,316.7 681,307C679.9,290.9 689.2,283.1 705,286C716.8,287.7 700.2,305.9 702,316C709.1,333.4 693.4,338.3 685,342ZM707,334C706.2,319.6 707.5,297.4 714,289C715.1,303.4 709.9,321.6 707,334ZM403,326C410,326.9 414.8,325.7 419,324C418.7,317.3 449.4,318.6 414,316L396,316C367.1,314.5 390,325.2 403,326ZM213,316C199.4,307.6 192,284.3 173,285C199.1,279.2 201,307.5 213,316ZM396,280C375.9,281.2 358.3,277.7 339,279C350.1,275.3 372.9,276.1 389,275C408.1,275.8 425.8,279.2 444,277C432.1,279.1 409.6,280.3 396,280ZM817,267C840.7,268.2 835.6,231.1 835,216C828.7,223.3 835.3,263.1 817,267ZM709,261C709.6,248.3 698.5,232.4 691,219C691.8,232.6 702.8,248.7 709,261ZM1460,240C1461.2,221.7 1446,211.9 1437,199C1427.6,190 1417.6,169.4 1414,162C1407.5,181.4 1420.4,191.7 1431,204C1440.5,216.7 1450.8,230 1460,240ZM154,237C152.3,222.8 138,210.1 144,194C155.3,178.6 145.1,176.9 158,180C166.8,191 177.1,200.5 185,212C175.6,217.2 158,222.9 154,237ZM1200,216C1204.4,204.5 1213.5,193.4 1204,183C1203.1,170.5 1216.7,158.5 1199,160C1200,170.7 1192.6,187.8 1200,195C1185.5,188.1 1200.6,202.6 1200,216ZM106,185C109.2,174.2 117.2,161 126,153C124.8,165.3 114.3,175.9 106,185ZM15,183C29.7,186.1 17.5,178.4 14,178C10.3,176.3 14.5,163.1 15,171C31.6,181.2 14.2,154.1 15,145C8.2,105.7 0.6,181.9 15,183ZM648,129C640.8,115 626.6,99 605,96C620.9,103.2 636,118.2 648,129ZM1297,117C1305.6,112 1279.1,104.6 1274,100C1263.8,94.1 1252.7,86.4 1243,81C1237.2,83.7 1257.9,97 1262,101C1273.3,107.4 1285.5,114 1297,117ZM5,114C14.2,108.9 16.8,96.6 7,88C-4.3,81.9 -1.7,113.9 5,114ZM569,111C562.4,110.3 533.9,102.8 550,100C559.4,99.6 584.8,111.3 569,111ZM630,96C629,90.1 615.7,78.2 603,78C589.7,77 572.2,73.8 558,77C556.8,80.3 586.9,79.2 594,83C609.8,84.1 621.2,88.9 630,96ZM42,83C53.6,77.2 70.7,76.9 84,78C95,80.5 120.9,81.9 122,82C113.4,74.5 93.3,75.8 81,73C64.1,72.7 48.3,73.2 42,83ZM1289,68C1310.9,70.4 1337,57.7 1297,60C1277.4,60.3 1262.9,52.8 1253,43C1238.6,24.5 1233.3,29.8 1251,46C1264,53.3 1272.5,66.8 1289,68ZM1479,68C1503.5,76.7 1494.4,42.3 1479,52C1451.6,54.3 1485.8,60.5 1479,68Z" fill="#260000"/>
</g>
</svg>
