<?xml version='1.0' encoding='utf-8'?>
<!-- Generator: imaengine 6.0   -->
<svg viewBox="0,0,1440,1440" xmlns:xlink="http://www.w3.org/1999/xlink" xmlns="http://www.w3.org/2000/svg" width="1440" height="1440" version="1.1">
<defs/>
<g id="layer0">
<path d="M0,0L1440,0L1440,1440L0,1440L0,0Z" fill="#f2e5e5"/>
</g>
<g id="layer1" opacity="0.8">
<path d="M734,1207C753.4,1201.7 747.6,1171 753,1152C757.9,1132.1 761.3,1109.4 766,1091C769.7,1070.6 774.5,1049.3 777,1029C786.4,1009.5 774.3,987 779,965C787.3,944.6 780,926 781,898C784.7,882.4 793,849.3 811,865C821.8,879.1 823.7,903.4 824,925C837.1,949.9 791.9,972.1 802,946C818.1,915.8 787.1,901.6 786,933C804.9,927 788.8,970.3 792,986C799,1029.1 803.6,994.3 799,969C818.8,959.8 833.7,940.4 817,973C812.5,990 809.3,1021.5 786,1008C772.3,979.9 789.2,1043.9 811,1015C824.4,1004.5 825.6,979.6 829,960C834.7,941.4 850.2,930.9 856,914C866.3,899.3 870.7,878.8 880,864C897.8,856.7 913.7,846.5 927,837C939.8,849.8 922.3,876.5 920,891C915.6,910.4 910.3,931.2 906,950C902.2,970.3 899.9,994.1 897,1014C898.1,1039.8 895.1,1059.4 897,1082C909,1122.6 903,1062.8 903,1049C903.3,1024.2 905.5,1000.3 909,981C911.7,958.9 916.5,938.8 920,918C925.9,898.9 931.7,878.6 937,861C953.8,837.9 926.4,816.6 910,835C898.7,848.5 874.7,850.6 869,867C862.6,885.6 853.8,903 846,918C837.7,933.2 821.5,963.4 833,924C834.7,898.5 830.6,876.4 821,862C812.4,844.4 780.2,851.2 777,869C768.3,881.6 763.6,911.1 771,929C782.4,949.1 764.7,971.8 771,992C778.7,1014.6 765.7,1034.8 765,1054C760.9,1074.5 755.5,1095.3 752,1114C747.9,1135.4 742.5,1154.8 740,1177C741.2,1219.8 717.7,1182.5 718,1167C714.2,1147.6 708.1,1127.6 708,1104C706.5,1082.3 706.6,1053.6 709,1035C711.7,1012.1 714.4,990 718,969C720.6,947 726.6,926.8 729,906C733.2,886.3 738.7,865.7 741,846C746.3,826.1 749.9,803.5 753,784C755.5,738.3 763,790.2 758,806C755.9,827.8 753.2,851.2 749,870C747,892.2 742.6,913.9 740,934C736.7,955.2 733.9,978.6 731,999C730.1,1022.4 727.3,1044.4 726,1068C724.1,1091.4 726.4,1116.3 727,1137C727.4,1161 732.2,1192.2 735,1182C736.6,1157.4 732.9,1134.9 732,1112C732.5,1087.5 732.7,1061.5 735,1041C737.1,1018.7 739.1,994.6 741,974C744.8,953.2 747.9,930.1 750,910C754,889.1 757.6,866.6 761,847C763.1,824.4 766.3,802.7 767,779C767.3,756.6 772.8,720.9 749,726C733.2,734.4 728.4,755.8 718,768C711.3,785.8 701.7,802.4 695,819C688.9,836.7 680.8,854.7 677,874C670.1,893.7 676.3,920.1 675,942C659.2,974.4 667.2,917.6 667,905C665.3,901 666.1,891.2 666,887C668.8,902 677.6,872.5 664,865C638.6,859 634.7,883.9 628,901C623.4,920.3 622,945.1 621,966C603,992.1 612.8,939.5 612,925C617.2,911.3 609.1,861.1 613,871C619.3,883.4 622.9,936.9 624,888C626.7,863.7 606.6,853.7 610,831C617.1,813.9 621.7,792.4 624,772C627.7,751.2 628.7,726 628,703L628,628C632,607.6 627.5,577 632,559C638.4,540.7 651.3,527.5 662,515C676.5,493.1 700.1,506.3 690,537C687.1,558.5 686.5,584 669,590C655.4,594 640.5,623 655,636C678,644 691.6,624.5 700,613C710.2,598.4 708.8,570.8 725,564C741.3,555.7 747,536.6 745,510C747,487.3 749.7,463.9 753,444C755.7,422.8 762.6,403.5 767,385C772.7,366.5 781,348.6 789,334C797.2,317.7 807.6,302 819,290C822.8,289.3 804.6,319.4 801,330C795,348.8 789.9,369.8 783,385C779.6,406.7 774.7,427.9 771,447C767.2,468 766.7,492.4 763,514C763.5,536.3 760.5,566.4 762,581C761.5,606.5 767.4,626.7 768,648C758.6,658.2 748.2,624.3 744,612C741.9,592.2 740.7,560 743,547C731.1,559.5 735.9,592.8 736,612C740.9,632.2 750,649.2 759,662C767.7,681 799.6,680.1 799,657C804.5,636.9 812.4,619.9 815,597C821.4,581.5 829.9,554.7 816,541C807.6,526.4 808.7,494.6 815,479C829,445 825,464.3 820,491C814.5,511.9 828.8,553.9 826,509C825.3,483.4 831.2,463.1 839,448C843.4,432.9 871.6,418.7 884,435C897.9,446.9 904.5,466.5 907,486C910.8,508.5 908.6,535.4 903,554C899.6,570.6 870.4,578.1 853,569C841,555.7 857.5,530.3 860,515C883.5,494.8 824.4,504.5 831,522C815,558.8 855,490 846,532C840.4,555.4 838,569.6 838,592C842.2,643.7 825.7,590.1 820,591C820.5,615.5 832.7,629.5 846,639C870.2,648.8 883.2,628.6 892,615C902,601.2 904,577.1 914,564C925.7,551.6 942.5,542.3 950,527C964.1,516.8 968.7,495.2 982,486C1002.5,499.6 1033.9,463.6 1031,489C1026.4,509.5 1017.5,526.7 1013,545C1006.6,562.9 1001.1,583.6 997,603C993.2,622.8 990.2,646 987,666L987,740C983.8,756.9 1006.4,801.7 984,777C973.6,764.7 966.6,745.6 965,723C960.8,702.5 965.5,677.5 966,657C969.1,634.9 972.8,612.4 977,594C981.5,574 987.8,554.2 993,537C1001.7,520.9 1008,501.1 1018,488C1026.9,476.2 991.8,501.6 995,515C988.1,533.3 979.9,550 975,570C970,589.4 966,611.5 963,631C959.3,652 957.6,676.4 956,698C956,723 959.6,745.6 966,761C973.1,779.8 984.7,793 1001,801C1026.3,810.9 1042,793.6 1046,777C1052.4,759.3 1056.7,737.5 1060,718C1064.3,697.9 1068.8,676.3 1072,657C1076.8,636.7 1080.8,615.8 1082,592C1088,573.8 1081.8,541.4 1089,525C1092.8,505.2 1102,488.3 1110,474C1129.5,454.4 1102.8,497.6 1105,509C1103.2,521.2 1094.8,566.5 1100,559C1109.4,543.7 1108.8,517.1 1114,500C1120.2,481.3 1128.3,463.2 1141,453C1170.1,447 1165.9,488.4 1157,498C1149.1,515.6 1136.4,527.8 1123,540C1108.6,549.3 1094,561.9 1100,587C1109.1,620.8 1100.2,628.5 1091,597C1079.3,605.2 1099,633.5 1108,639C1113.8,655.4 1151.8,656.4 1158,641C1169,627.8 1174.5,607.1 1181,591C1188.2,573.7 1195.4,554.7 1203,540C1193.4,535.9 1184.2,566 1177,577C1170.7,595.2 1163.9,613.1 1155,630C1151.8,653.2 1117,647 1116,627C1108.6,610.5 1106.5,586.4 1107,563C1119.2,551 1134.9,540.6 1145,528C1156,514.5 1167.9,500.2 1172,482C1176.4,455.5 1160,441.8 1137,446C1117.9,450.5 1107.2,466 1098,479C1089.7,495.7 1082.1,514.2 1080,534C1073.6,555.7 1083.5,583.1 1073,600C1070.7,622 1064,641.4 1062,662C1056.6,681.1 1053,703.6 1049,722C1044.3,742.1 1040.8,764.7 1032,779C1026.2,805.9 998.5,790.2 999,768C992.4,751.1 994,723.4 993,700C993.3,675.8 996.6,652.9 999,632C1002.3,611.5 1007.1,590.2 1011,572C1017.6,553 1024.2,534.7 1029,515C1032.1,503.6 1056.1,466.4 1026,471C1015.1,483.6 970.4,483.7 992,460C1000.7,444 1007.8,425.1 1014,408C1020.4,390.5 1025.8,369.8 1029,351C1033.1,328.8 1032.6,303.7 1026,286C1023.2,267.2 992.7,262.2 978,273C965.6,285.4 953,298.9 946,315C938.4,332 932.3,350.8 929,372C925.9,395.4 929.3,422.5 934,438C941.4,456.2 951.8,471.8 966,479C971.8,494.2 951.9,511.5 945,523C933.1,535.8 918.9,547.7 909,560C898.2,574.1 893.8,595.9 885,610C883.6,624.6 853.4,648.4 848,621C845.6,604.9 834,560.5 864,581C888.7,581 904.4,571.8 911,554C916.5,535.7 918.4,507.9 915,487C912,466.3 905.4,446.8 893,435C886.4,420.3 854.4,417.7 842,429C826.2,437.9 817.3,455.1 810,470C802.9,487 799.9,514.1 804,533C814.7,547 821.8,572.6 810,588C805.3,608.5 798.2,627.6 793,645C788.5,680.4 774,664.7 774,636C771.8,614.3 767.9,592.1 768,568C769,544 770.9,519.8 772,498C774,475.8 777.5,453.1 780,433C787.3,415.3 784.4,387.5 802,380C817,370.9 832,359.8 843,348C855.8,336.4 867,321.5 874,306C881.6,284.5 876.4,256 851,261C831.6,266.3 817.1,276.7 807,291C796.5,305.3 786,320.9 779,336C770.6,352.7 763,371.2 758,389C751.3,406.7 723.3,404.8 705,410C685.7,413.2 656.6,413.9 636,411C614,409.5 591.5,405.9 570,403C549.6,400.6 525.9,398.2 505,396C484.6,393.4 456.2,392.1 435,394C413.2,396.9 392.9,401.5 375,408C357,414.7 340.7,424.6 327,434C312.9,444 299.9,457.1 290,470C280.5,483.2 269.5,502.9 273,524C285.7,531.8 281.2,486.1 293,480C302.4,465.8 315.2,452.4 327,442C341.2,431.2 357.9,421.8 374,415C390.5,407.3 412.5,403.1 432,399C453.9,397.8 482.3,397.8 502,401C525.5,402.8 548.6,405.7 568,408C590.7,410.8 612.9,414.7 633,416C656.5,418.5 683.6,418.5 703,415C722.9,410.5 749.1,410.6 759,398C756.8,401.4 744.9,428.7 745,447C741.2,467.3 740,492.2 738,513C740.2,539.6 731.9,557.4 716,564C700.5,573.7 702.1,600.1 690,613C666,639.5 686.1,589.2 689,585C677.1,593.2 669.3,614.1 663,630C651.9,613 672.4,593.9 682,586C696.6,575.8 694.5,547.6 698,528C704.4,495.6 711.2,554.9 705,565C706.8,584.6 722.8,537.3 712,524C711.6,503.7 691.5,488.3 672,498C658,509.3 645.3,521.4 636,537C623.1,548.5 622.8,574.3 622,596L622,669C619.3,691.2 622.5,720.6 619,740C610.1,713.7 620,777 614,785C612.9,808.2 603,824.5 600,844C603.2,861.2 607.2,888.4 605,907C607.4,932.9 601.4,955.6 604,977C627,999.8 632.8,962.3 630,941C630.7,917.4 636.5,897.1 645,883C660.4,851.1 659.9,904.1 659,919C653.8,940.6 655.1,976.5 680,956C687.6,935.9 677.3,909 681,889C686,869.9 690.9,848.7 698,833C704.5,815.1 713.1,797.6 720,781C729.4,766.7 738.2,749.4 747,735C766.6,721.4 742.1,757.9 747,776C744.6,798.6 739.4,819.4 736,839C732.6,859.8 727.2,880.5 723,900C720,920.5 715,941.6 712,961C708.3,982.1 705.4,1005.4 703,1026C700.5,1046.5 699.7,1075.4 700,1094C700.9,1118.3 704.3,1141 709,1158C716.4,1176.2 716.4,1202.3 734,1207ZM900,1109C924.2,1110.3 922.9,1083.7 929,1068C934.9,1050.3 940.1,1030.1 945,1013C948.5,994.8 955.9,972.3 952,952C951.6,928.1 957.4,908.6 964,893C964.5,879.4 998,851.4 982,882C965.6,913.9 983.7,901.8 990,880C997,857.8 1019.6,852.8 1001,880C994.5,896.8 975,900.4 973,921C966.8,938.8 975.8,973.2 965,984C947.2,956.8 959.8,1009.3 977,1002C1003.3,1005.5 1001.9,978.8 1011,966C1018.2,950.1 1026.5,935.2 1032,918C1054.5,888.9 1023.4,905.9 1020,923C1013.9,939.6 1005.5,956.6 999,972C992.2,994.2 974.8,1004.5 977,969C977.5,946.6 977.7,923.7 984,907C997.9,897.2 1012.1,886.1 1018,870C1028.8,840.9 987.3,850 979,858C966.5,869.1 957.6,885.5 952,902C946.2,919.1 943.1,943.5 946,964C945.8,983.1 938,1003.2 933,1019C928.8,1038.5 923,1058 918,1074C918.9,1098.6 895,1110.7 888,1085C879.8,1070.6 875.5,1051.8 876,1027C877.9,1004.8 881.2,982.9 884,964C888.8,945.1 891.9,922.8 897,906C902.5,888.1 907.1,867.3 914,852C914.6,840.9 894.7,871 894,884C890.5,903.7 884.4,922.9 882,942C877.4,961.3 873.9,983.1 871,1002C869.2,1023.7 867.7,1049.7 873,1067C878.6,1084.7 884.5,1101.9 900,1109ZM470,1054C508.4,1056.5 463.5,1046.6 470,1029C466.7,1014 463.8,997.2 464,977C466.1,964.3 464.7,928 468,937C473.2,951.1 495.3,951.9 510,948C527.6,946.3 538.5,937.5 550,929C560.3,919.9 570.3,910.2 578,898C586.1,886.5 594.4,875.1 597,858C594.7,841.2 586.3,877.1 579,882C576.7,888.4 552.6,919.6 563,900C569.4,886.6 575.3,872.7 579,857C584.2,842.2 587.5,825.8 591,810C594.8,793.6 597,776.2 599,758C600.2,739.9 601,721 600,700C600.2,680.8 600.1,661 601,642C598.7,624.2 592.1,664.1 594,676C593.4,695.4 594.9,716.6 592,734C592.7,754.2 590.3,773.8 587,789C583.1,804.7 590.1,831.4 563,824C544.6,825.3 531.9,832.3 520,840C508.9,848.7 499,858.6 491,870C482.5,881.5 475.3,894 469,907C462.5,927.1 464.9,945.1 457,914C453.6,898.5 451.4,881 452,860C454.7,842.6 458.6,826.8 464,812C469.1,797.6 475.4,781.8 479,767C492.9,748.2 483.1,738.4 473,761C468.5,776.2 462.5,789.9 457,804C454,820.9 447.7,834.3 447,853C446,870.5 444.6,894.5 450,907C454.5,921.7 462.1,938.5 455,956C452.2,973 451.6,994.2 453,1011C456.9,1028.5 455.7,1049.5 470,1054ZM502,945C485.6,945.4 465.4,940.3 473,923C477.2,909 484.7,896.1 491,885C498.1,874.5 506.1,862.2 515,855C524.3,845.5 536.4,837.1 549,833C564.6,825.4 590.2,831.4 574,851C569.6,864.4 565.3,880.4 559,891C553.3,903.3 545.1,915.5 537,924C528.1,933.3 516.4,942.1 502,945ZM862,861C885.6,858.2 888.8,833.7 894,815C899.8,794 905,771.4 906,748C909.1,723.5 908,694.5 900,678C896.9,658.9 868.8,649.1 848,659C831.7,668.8 821.2,686.1 813,703C805.4,721 800.2,743.5 799,767C800.6,792.7 807,814.2 816,829C826.5,845.3 841.2,858.4 862,861ZM873,849C856.5,845.5 850.7,828.4 843,816C837.8,801.1 833.5,782.7 833,763C833.5,743.2 836.2,723 840,708C845.9,692.9 851.7,678.1 861,667C881.2,657.7 889.8,680.6 893,693C899,708.4 899.3,731 898,750C896.6,769.6 892.4,788.3 888,803C884.3,820 881.3,837.5 873,849ZM851,848C832.9,844.2 824.9,827.7 817,813C809.7,799.6 806.3,780.7 807,757C808.8,782.8 817.2,797.2 813,757C812.2,736.2 815.6,718.2 821,703C822,693.4 851.7,660.3 842,684C836.4,700.6 830.6,717.1 828,736C828.7,758.7 826,785.9 831,801C834.6,820.5 845.5,831.9 851,848ZM294,825C312.9,825.9 330.3,825.2 344,821C359.6,818.6 372.6,813.6 384,807C396.3,801.3 407.4,794.4 416,785C428.7,780.3 435.2,767.2 443,759C450.9,749.2 458.3,738.6 464,726C471.2,715.5 475.9,702.2 482,690C487.7,678 491.7,663.9 497,651C501.4,638.3 507.3,624.6 507,609C507.9,596.8 499.4,582.8 495,570C489.3,558.5 484.9,545 480,531C477.1,518.4 469.2,503.9 470,489C481,492.3 486.9,509.1 492,518C497.2,531.4 502.7,543.9 507,556C517.5,574.4 511.2,539.4 506,532C500.3,520.6 496.3,506.6 488,496C483.8,485.3 470.1,475 455,479C442.3,484.7 439.4,499.9 434,513C428.9,525.3 424.2,538.7 419,551C414.7,565.1 411.8,580.3 406,592C402.4,606.2 397.3,620.7 393,632C386.9,644 383.3,658.5 374,667C357.4,675.9 352.3,655.7 347,645C341.1,633.5 336.7,619.9 335,603C329.3,584.7 347,578.6 353,570C362.2,561.5 372.7,554 379,542C387.4,532.7 394.2,521.5 401,510C406.1,497.4 414.2,487.5 414,469C413.5,453.6 399.2,445.1 383,450C368.8,453.7 359,461.9 352,473C342.9,481.8 337.1,494 330,505C325,517.8 320.1,531 316,545C312.2,558.4 312,577.8 308,590C290.6,600 283.4,581.9 281,568C262.1,564 271.5,594.8 282,595C295.6,600.5 319,595.2 312,619C315.8,633.8 322.4,646.7 327,657C336.3,666.5 345.5,675.3 360,678C378.5,679.4 386.7,669.6 392,657C398.2,645.1 403.6,632.4 407,618C412.2,605.6 417.6,591.5 420,578C424.2,564.4 429.3,551.4 433,537C439.3,525.5 443.3,511.5 451,501C458.4,474.3 463.2,498.3 466,511C472.3,523.6 475.1,540.3 479,551C484.4,564.8 489.3,577.8 495,590C505.6,601.4 496.9,620.5 492,631C488.5,645.4 483.5,658.3 479,672C474.2,684.5 468.5,698.3 464,709C457.3,720.9 452.4,734 444,744C437.1,754.6 430.2,765.8 420,774C411.7,783.3 400.9,790.4 389,797C379.8,804.7 365.6,810.2 353,813C339.6,817.9 324.2,820.5 306,820C288,820.2 274.5,815.8 262,810C251.7,802.6 240.2,796.1 234,784C224.9,776 219.5,761.8 214,750C210.4,738.4 208.9,718.7 209,704C209,686 211.3,670.3 214,655C221.7,632.8 185.1,636.6 194,658C193.2,676.6 196.1,693.3 196,708C198.7,724.5 200.7,740.4 205,753C210.4,766.8 217.4,777.7 225,788C233.4,797.7 243.4,805.8 254,812C266,818.6 280.9,823.2 294,825ZM605,788C613.7,780.4 610.5,756.1 609,743C603.8,750.1 609.6,776.3 605,788ZM821,785C822.6,769.4 822.8,740.5 822,722C816.9,737.9 818.2,768.3 821,785ZM821,716C829.7,710.5 831.4,698.5 834,687C829.1,696.2 825.9,706.7 821,716ZM203,684C199.4,678.3 199.4,661.4 203,655C209.1,662.5 200.9,673.4 203,684ZM572,660C588.6,661.6 592,647.1 595,636C593.4,624.5 602.1,613.4 603,600C604.5,586.3 605.1,569 608,558C608.8,543.3 613,532 615,519C620,507.9 625.4,495.3 632,488C644.6,477.1 631,505.9 631,513C631.1,522.9 620.1,545.8 627,546C632.1,535.6 635.8,524 639,511C641.8,498.8 645.9,485 651,477C659,468.7 680.2,463.1 650,465C637.9,468.4 629.4,477.9 623,486C617.9,495.8 612.2,505.5 609,518C605.3,529.6 602.5,544.8 600,556C599,570.7 596,583.2 596,599C593.2,611.5 589.9,626 585,635C586.9,651 567.7,655.6 561,642C553.9,635.1 547.9,623.2 542,614C537.6,604.1 531.9,594.3 527,583C519.6,570.4 532.5,558.1 534,549C539.4,538.1 543.5,526.8 550,518C555.2,507.4 563.3,497.6 569,489C572.1,484.5 608.4,482 587,479C573.4,475.7 557.9,482.5 551,488C543.4,495.8 536.1,504 532,515C526.6,525.6 521.8,538.7 519,550C514.5,562.4 515.5,576.1 520,587C525.6,598.3 532.4,609.5 536,619C539.1,624.5 557.1,646.6 541,640C531.5,634.4 522.9,625.1 518,615C512.5,591.8 508.7,609.9 514,624C519.5,635.3 531.2,641.5 538,648C548.3,653.9 558.9,658.7 572,660ZM343,658C330.1,652.4 325.9,635.3 321,622C316.9,608.5 314.2,589.5 318,573C320.1,555.8 324.6,541.4 329,527C334.6,513.8 341.1,501.4 348,489C360.6,471.3 365.9,470.6 352,489C345.9,502.3 340.8,516.1 336,531C331.4,544.4 330.4,562.3 326,577C324.6,596.7 339.3,562.6 338,552C341.3,536.9 347.2,521.6 352,509C358.1,496.1 363.8,482.9 372,473C373.4,461.4 400.6,448 403,468C406,483.8 397.6,498.6 392,510C385.2,522.7 376.1,534.7 369,545C359.6,554.6 350.1,564 340,573C328.3,579 324.8,597.6 329,615C332.1,631.7 338.2,644.5 343,658ZM972,473C959.4,464.8 947.9,453.5 943,438C937.1,424.5 935,406 936,384C937.1,365 941.5,348.8 947,334C952.7,318.9 959.6,305.1 969,294C989.3,270.9 969.3,308.5 966,316C961.7,331.6 958.1,348.7 956,367C957.1,387.7 955.3,410.2 957,428C960.5,444.9 966.8,462.1 972,473ZM981,473C973.3,459.4 968.2,443.1 965,424C962.3,408.2 962.2,381.3 964,365C965.2,344.6 970.4,328.4 975,312C983.2,298.9 986.7,279.6 1004,277C1016.9,286.4 1020.8,303.9 1022,324C1023.3,346.1 1019.6,365.2 1014,379C1011.1,397.4 1004.3,412 999,428C993.1,443.1 983.6,456.5 981,473ZM786,388C788,377.5 800,367.5 801,354C805.1,342.4 810,328.5 815,318C819.8,307 827,295.4 833,286C838.4,279.6 852,262.8 862,273C872.4,282.6 866,305.2 861,312C856.3,323.8 847.7,334 840,342C833.5,351.2 821.4,357.8 813,365C804.8,372.7 792.4,379 786,388Z" fill="#260000"/>
</g>
</svg>
