<?xml version='1.0' encoding='utf-8'?>
<!-- Generator: imaengine 6.0   -->
<svg viewBox="0,0,1440,1440" xmlns:xlink="http://www.w3.org/1999/xlink" xmlns="http://www.w3.org/2000/svg" width="1440" height="1440" version="1.1">
<defs/>
<g id="layer0">
<path d="M0,0L1440,0L1440,1440L0,1440L0,0Z" fill="#f2e5e5"/>
</g>
<g id="layer1" opacity="0.8">
<path d="M0,1440L72,1440L142,1440L213,1440L284,1440L356,1440L426,1440L497,1440L568,1440L640,1440L711,1440L781,1440L852,1440L923,1440L993,1440L1064,1440L1135,1440L1207,1440L1278,1440L1348,1440L1419,1440C1454.9,1451.5 1434.2,1406.8 1440,1388L1440,1317L1440,1247L1440,1176L1440,1104L1440,1033L1440,963L1440,892L1440,821L1440,750L1440,680L1440,609L1440,537L1440,466L1440,396L1440,325L1440,253L1440,182L1440,111L1440,41C1442.7,14.4 1445.2,-12 1409,0L1338,0L1267,0L1197,0L1126,0L1055,0C1042.3,0.4 980,-1.4 1020,2C1043.8,3.2 1064,8.3 1082,11C1101,17.1 1119.1,23.1 1136,29C1153.5,36.1 1170.8,44.1 1184,52C1200.2,60.2 1215.2,70.4 1227,79C1242.4,88.7 1254.4,102 1266,111C1277.6,124.7 1291.9,134.4 1301,149C1312.6,161.2 1322.2,176.9 1330,190C1340.2,204.3 1348.5,221.3 1355,236C1362.3,252.9 1368.5,272 1373,289C1378.5,307.9 1382.4,328 1383,351C1385.6,373.6 1385.4,395.1 1383,416C1381.2,437.8 1377.2,459.1 1371,475C1366.2,493.6 1360.2,512.9 1353,528C1348.4,546.5 1341.3,564.6 1333,578C1326.3,595.1 1316,610 1307,623C1298,637.5 1285.5,650.3 1275,662C1263.4,673.7 1251.8,687.4 1239,696C1225.3,706.7 1212.3,717.8 1197,726C1181.9,734.8 1166.4,744.7 1150,750C1134.1,757.8 1116.5,765.5 1099,770C1080.1,774.4 1060.6,780.3 1040,781C1019.8,785.4 996.6,786.2 972,785C948.2,785.9 926,782.7 907,779C887.9,775.5 867.1,770.9 851,765C833.5,759.1 815.4,751.9 801,744C784.5,737 769.7,727.7 754,718C751.5,713.3 742.1,723.6 745,717C764.9,718.6 761.6,695.3 750,690C736.2,676.1 724.5,704.7 713,711C706,738.1 683,717.1 675,707C665.5,694.7 646.9,683.9 640,673C634.4,654 658.1,645.2 664,632C667.6,629.5 670.3,626.2 675,624C661.5,601.7 666.5,634.7 658,630C650.6,614.2 638.1,601.4 631,586C622.4,571.2 615.1,554.4 608,537C601.6,520.5 596.3,500.5 592,482C587.1,464.3 587.9,438.2 586,417C585.2,396.9 581.6,370.8 585,351C585.6,327.6 589.7,307.7 594,288C598.9,269.4 604.9,250.1 612,235C618.3,218 627.7,202.2 635,187C645.1,174.1 654.2,158 664,146C675,132.8 687.3,121.2 699,109C711.2,97.6 725.8,86.8 738,77C752.2,67.8 766.9,57.3 781,50C796.9,41.9 813.7,33.4 830,28C846.5,20.7 866.3,15.2 884,11C903.9,7.4 923.8,2 946,2C973.2,-1.7 910.5,0.7 901,0L830,0L758,0L687,0L617,0L546,0L474,0L403,0L333,0L262,0L190,0L119,0L48,0C29.2,3.8 -13,-13 0,21L0,92L0,163L0,234L0,304L0,376L0,447L0,518L0,588L0,660L0,731L0,802L0,873L0,945L0,1015L0,1086L0,1157L0,1227L0,1298L0,1369L0,1440ZM102,1341C88,1340.4 85.2,1327.8 75,1321C73.4,1314.2 93,1315.2 95,1303C110.1,1288.7 125.1,1273.7 140,1258C155.1,1243.7 170.8,1229.4 183,1212L228,1167C244.5,1153 256.2,1134.8 272,1121L317,1076C330.1,1058.7 347,1045.5 361,1029C377.2,1015.8 390.4,999 405,983L450,938C464.6,923.1 477.8,906.3 493,892C508,876.6 524.9,863.4 537,846C554.7,836.2 565.1,806.3 570,804C558.8,795.5 549.4,749.5 527,776C520.2,785.4 530,777.5 532,774C550.1,772.2 559.9,797.5 543,808C527.6,822.5 515.4,840.3 500,855L455,900C441.8,916.6 426.6,931.5 411,946C397.1,962 380,974.9 367,992L322,1037C306.5,1051.3 295.2,1070.1 279,1083L234,1128C221.7,1146.6 204.6,1159.4 190,1175C175.4,1190.2 159.6,1204.4 146,1221C131.6,1236.4 116.6,1251.4 101,1266C82.8,1272.3 78.9,1313 59,1303C36,1289.6 38.7,1263.2 61,1252C76.7,1237.3 91.7,1222.3 106,1207C123.1,1193.6 134.8,1175.4 150,1161L195,1116C208.4,1099 224.2,1084.8 239,1069C253.4,1054 270.6,1041.1 282,1023L327,978C334.9,970.1 344.3,964.1 349,954C357.4,946.9 365.1,937.5 372,932C387,916.3 400.9,900.1 416,885C430.8,870 448,857.2 460,839L505,794L516,783C517,771.2 559.7,754 527,765C507.8,760.4 562.8,751.4 568,739C597.5,738.5 603.8,714.8 619,700C633.6,671.4 658,694.8 667,712C690.7,733.6 661.7,749.8 649,763C632.9,761.3 617.1,827.2 633,794C643.3,774 663.7,764.4 675,745C674.3,716 715.5,735.5 723,709C726.7,704.9 729.7,700.1 734,696C759,676.5 736.1,706.3 726,712L714,723C678.4,732.7 720.2,735.6 725,718C737.2,696.7 767.8,684.8 738,716C734.9,743.1 692.4,730.5 684,752C669,767.1 654.5,782.6 642,801C647.6,842 613.8,810.4 605,797C591.7,781 572.9,769.8 559,753C548.5,759.7 581.7,782.4 590,794C595.2,796.3 594.1,806.9 592,807C555.4,800.9 597.8,818.7 585,833C571.1,849.2 558,866.1 542,880L497,925C484.9,943 468.5,956.7 453,972C439.2,987.3 422.8,1001 410,1018L365,1063C349.3,1077.4 337.8,1095.9 321,1109L276,1154C264.1,1172.3 247,1185.2 232,1200C217.5,1215.7 202.4,1230.5 189,1247L144,1292C130.4,1308.5 113.7,1321.9 102,1341ZM621,844C614.9,840.5 606.4,838.8 604,830C612.2,832.9 618.4,837.1 621,844ZM596,775C614.8,771.2 621,755.2 633,745C640.3,734.6 663.3,722.5 655,709C646.3,722.5 634.8,733.4 624,745C618.4,756.3 595.7,770.1 596,775ZM981,759C1005.3,758.5 1030.7,758.1 1053,754C1074.2,750.2 1095.5,745.8 1114,739C1134.3,733.1 1153,726.2 1170,717C1187.3,709.5 1204.2,699.4 1218,690C1234.1,680 1248.3,668.5 1262,657C1274.9,644.1 1289.1,631.3 1299,618C1312.6,605.5 1322.9,590 1330,572C1324.2,577.6 1310.7,600 1301,610L1262,649C1249.1,661 1233.8,672.8 1220,682C1204.5,692.8 1188.4,702.4 1171,711C1154.2,719.1 1134.4,726.3 1117,732C1096.8,738 1077,744 1054,747C1032.4,750.3 1007.5,752.4 983,752C958.4,751.6 935,749.3 912,745C891.5,741.8 870.7,735.7 852,730C833.5,723.5 815.2,716.1 798,707C780.8,699 765.7,688.5 749,678C735,667.7 720.4,656.6 707,644C694.8,631.3 680.7,618.4 669,605C658.5,591.2 647.2,576.8 637,560C628.4,544.7 619.2,526.9 612,510C604.2,495.9 597.8,467.7 592,460C596.6,481.7 601.8,503.4 609,519C616.7,537.9 626.6,553.7 636,569C645.8,585.4 657.8,600.4 668,613C676.9,630.7 695.8,637.5 708,650C720.8,663.4 734.3,676.9 749,685C763.3,697.2 781.2,705.1 797,714C814.1,723.1 833.3,730.9 851,736C870.2,743.4 890.5,748.8 912,752C933.3,757 958.4,758.8 981,759ZM955,736L1008,736C1014.8,736 1057.4,732.5 1033,731C1018.1,733.3 1000,734.8 983,734C967.6,733 951.2,732.2 936,730C921,727.9 904.5,724.8 892,721C878.6,717.9 864.7,714.6 852,709C839.2,705.6 826.2,699 815,694C803.4,688.9 793.5,681.7 781,676C771.2,669.4 759.4,661.6 750,654C740.7,647.5 730.5,640.5 722,631C711.9,624.5 702.9,614 695,605C687,597 679.6,587.2 672,577C664.4,567.9 657.5,555.2 650,546C645.1,534.8 638.4,524.3 633,511C627.8,500.6 623.4,487.9 618,475C615.4,461.6 610.7,449.2 608,434C605.3,420 604,401.7 603,387C602.4,369.2 604.4,354.1 608,340C611.1,326.3 614.4,310 619,299C622.9,285.6 629.1,274.6 633,262C639.6,250.7 646.3,237.8 653,228C658.8,217.4 666.2,207.6 673,198C680.5,187.6 689.7,179.7 696,169C706.1,161.8 712.6,151.2 723,145C727.7,137.4 755.5,121.1 736,136C727.1,143.8 722.1,156 712,163C705.4,173.8 695.3,183.2 690,194C682.9,203.7 676.8,214.8 671,226C664.8,237.3 659.1,251.2 654,262C649.6,274.6 645.4,287.6 641,300C638.8,315.2 635.3,328.9 633,344C631.9,359.7 630.6,375.6 631,393C632.1,410 634.1,427.5 636,441C639.8,454.7 643.1,468.6 648,480C653,493.3 658.5,507.3 664,516C670.1,526.1 678.2,541.6 685,542C677.3,533.1 671.1,519.8 664,510C659.5,498.5 654.3,486.6 650,473C645.6,461 642.4,447 640,432C637.7,417.4 635.6,402.3 636,384C635.6,366.2 637.5,348.5 640,335C642.3,320.5 645.7,306.7 649,293C652.5,279 658.7,265.6 663,254C668.7,242.7 673.5,230.3 680,219C686.1,208.4 694.1,196.9 700,187C706.7,176.5 715.8,168.5 722,158L748,132C758.6,125.6 766.9,116.7 776,109C787.8,103.2 798.6,94.4 810,90C820.2,83.1 833.4,79.1 844,73C857.5,68.6 873.8,65.4 885,61C901.9,60.7 913.5,55.1 928,52C942.7,49.7 960.8,48.3 977,48C993.9,49.2 1012.5,47.8 1027,50C1042.4,52.1 1057.6,54.1 1072,56C1085.6,60.4 1099.6,63.5 1112,68C1125.7,72 1140.2,77.1 1152,81C1162.6,87.5 1174.9,92.4 1185,99C1196.3,105.5 1208.1,113.3 1216,120C1226.5,127.8 1236.7,134.7 1244,144C1252.8,153.2 1264,161.6 1270,171C1277.9,180.5 1284.6,190.9 1292,200C1297.8,212.1 1305.1,221.9 1310,234C1315.9,245.4 1320.3,258.1 1325,270C1329.5,283.4 1334.1,298.4 1335,312C1339.3,326.1 1340.9,341.7 1342,357C1345.3,374 1342.3,391.9 1342,407C1339.9,422.3 1338.5,438 1334,451C1332.4,466.6 1326.8,480.5 1323,492C1318.7,505.3 1313.6,517.3 1307,528C1302,540.3 1295.2,553 1288,561C1282.4,573.1 1274.6,582.4 1267,592C1257.6,600 1251,612.9 1242,619C1233.5,628.4 1225.3,637.3 1215,644C1205.6,652.1 1194.2,660.3 1184,666C1174.4,673.4 1162.9,679 1152,685C1140.8,689.6 1117.3,702.7 1141,691C1154.5,687.4 1165.3,681 1176,675C1187.5,668.9 1197.7,662 1207,654C1217.3,647.3 1227.3,640.1 1235,631C1244,622.3 1254.5,613.3 1261,604C1270.5,596.3 1277.5,586.2 1284,576C1292.2,566.3 1298.8,553.4 1305,543C1310.7,532.4 1316.5,521.1 1321,509C1326.6,496.7 1331.5,482 1334,469C1338.5,456.1 1341.7,442.1 1343,426C1346.6,412.8 1345.8,394.8 1347,379C1346.2,363.4 1346,346.4 1343,331C1341.8,316.1 1337.4,300.9 1334,288C1329.4,276 1326.6,261.7 1320,250C1316.1,237.7 1308.7,225.5 1303,214C1296.8,204.5 1290,194.1 1283,183C1275.9,173.7 1266.1,164 1260,154C1254.6,142.5 1242.7,137.3 1234,128C1224.3,121.4 1214.9,113.7 1204,106C1193.3,101 1183.9,93.2 1171,88C1160.8,81.8 1146.2,76.9 1135,72C1123.4,66.8 1109.8,63.2 1096,59C1082.7,55.8 1066.5,52.4 1053,50C1039,47 1022.5,46.3 1006,45C990.1,45.8 968.3,43.6 955,46C938,46.1 924.8,50.1 909,51C895.5,55.1 880.8,57.5 867,61C854.8,65.8 841.4,69.5 829,74C816.9,79.6 804.5,86.8 793,91C782.8,97.9 771.8,104.1 761,110C751.6,118.4 739.5,125.9 731,133C720.3,139.6 713.8,150.2 704,158C696.2,167.1 685.6,176.1 678,185C671.4,194.8 663.7,204.2 657,214C649.9,224.8 643.7,235.7 637,246C631.6,257.9 626.8,270.3 621,281C617.6,295.6 611,308.5 609,322C605.3,335.7 602.8,350.3 601,366C598.9,382.2 601.4,402.3 603,415C604.6,430.8 607.9,444.7 610,459C614.5,472.6 619.6,487.1 623,498C629.4,510.1 633.4,523.4 640,533C646.4,544.6 651.4,556.7 659,565C665.9,576.5 672.8,586.8 681,595C687.2,607 699.9,613.8 705,623C713.1,633.4 725,638.7 732,648C743.4,654.9 753.3,664.5 763,669C773.7,677 784.7,683.1 795,689C807.1,695.3 819.5,702.5 831,705C843.3,711.6 855.7,716.3 869,720C881.8,724.5 896.4,727 910,730C924.6,733.1 940.6,734.3 955,736ZM685,702C697.9,694.8 708.3,679.6 716,672C703.3,676.2 692.8,691.3 685,702ZM669,694C686.2,686 700.8,668.9 708,657C693.1,662.8 682.9,684.2 669,694ZM655,685C674.1,676.3 685.7,657.3 699,646C679.1,650.6 672.6,674.8 655,685ZM650,678C664.3,667 680.1,647.3 687,637C674.8,647.1 656.2,664 650,678ZM644,669C656.5,657 672.2,642.5 681,631C667.2,639.1 651.1,653.2 644,669ZM1140,669C1157.6,661.4 1172.9,650.9 1186,639C1200.5,627.6 1216.6,616.7 1226,603C1238.5,589.2 1250.4,575.4 1260,559C1270.4,544.4 1280.1,527.2 1287,510C1295.4,493.1 1301.8,473.8 1307,453C1311.6,432.6 1315.7,409.8 1316,387C1317.4,360.5 1316,336.2 1311,315C1308.5,292.7 1301.5,272.7 1294,255C1295.5,267.6 1306.9,290.8 1307,312C1312.9,332.3 1313.1,359.1 1312,383C1312.4,408.5 1308.1,430 1303,451C1298.5,471.3 1291.4,491.2 1284,507C1276.2,525.4 1267.2,542.1 1257,558C1247.3,573.1 1235.4,588.1 1224,600C1210.3,612.5 1199.7,627.6 1184,637C1171.2,650 1154.3,660.1 1140,669ZM695,529C696.5,508.1 691.1,486 693,460C692.8,435.2 696.1,413.7 699,392C703.5,371.4 708.5,351.5 714,333C721.4,315.2 728.6,296.2 736,281C744.8,264.8 754.1,249.2 763,234C773.6,219 785.2,205.8 795,191L833,154C843.6,142.8 863.9,130.5 869,122C854.1,132 840.9,143.6 826,154C815.1,167.5 800.4,177.7 790,192C778.6,205.5 768.1,219.9 758,235C748.2,249.3 739.8,267 731,281C723.5,298.3 716.3,316 709,334C704.1,353.5 698.3,372.6 695,394C691.1,415.1 689.1,437.9 689,462C689,487.4 692.1,510.4 695,529ZM1368,336C1367.3,314.7 1360.2,290.7 1353,272C1345.4,254.5 1336.2,237.1 1326,219C1316.6,202.5 1300.5,183.3 1305,178C1293.1,164.1 1282,148.5 1269,135C1256.3,120.8 1240.3,108.1 1226,96C1211.2,85.3 1195.2,74.6 1177,65C1161.5,55.2 1142.8,47.4 1123,39C1104.7,32.3 1083.4,27.1 1062,21C1039.5,17.4 1012.9,15.4 988,14C961.7,13.7 937.9,16.4 914,19C891.5,23.6 868.3,29 849,36C830,42.7 811.3,50.6 793,59C776.4,69.2 758.6,80.1 744,91C728.4,101.8 715,115 702,128C688.2,141.3 675.7,155.5 664,171C653.6,186.4 643.2,202.6 633,219C615.9,260.7 639.6,219.4 645,207C656.3,191.3 667,175.4 680,162C692.6,147.5 707.8,134 721,122C735.8,110.1 751.9,99.6 767,88C785.8,80 803.7,69.3 822,63C841.5,55.1 861.2,48.2 883,43C904.3,38.2 927.7,35 952,33C977,30.2 1005.4,32.9 1027,36C1052.4,37.8 1075.2,43.7 1095,48C1115,55.9 1135.4,62 1153,70C1171.5,79.4 1189.8,89.8 1204,100C1221.8,109.8 1235.7,122.5 1251,133C1263.9,147.8 1279.9,160.4 1290,174C1303,189.3 1312.5,206.4 1323,222C1332.1,239.9 1342,256.6 1348,276C1357.9,293.8 1360.6,317.7 1368,336ZM1299,177C1291.1,170.5 1283.9,159.7 1276,153L1253,129C1244.3,123.7 1237.4,115.2 1227,109C1219.4,102.3 1208.9,97.4 1200,90C1190.9,84.5 1180.7,79.3 1171,73C1160.5,68.6 1150.4,63.4 1139,59C1128,54.8 1117.3,50.1 1105,46C1092.6,44 1082.2,39 1068,37C1056,34 1040.6,31.5 1027,30C1014.6,28.1 999,28.3 984,27C968.2,25.7 955.9,28.9 939,28C926.6,30.4 912.8,32.1 900,34C886.9,37 873.8,39.4 862,43C849.8,46.3 838.3,50.1 828,55C815.7,58.4 806,64.2 794,68C788.9,71 767.2,84.2 772,79C781.4,72.8 793.5,66.9 802,61C813.4,57.4 823.1,51.7 834,47C845.6,43.3 857.2,39.5 869,36C880.8,32.3 893.3,29.3 906,27C919.5,24.6 932.1,21.8 947,21C960.7,19.5 977.8,21.2 992,20C1009.1,19.5 1021.9,22.1 1036,23C1049.6,25.2 1062.6,27.6 1074,30C1087.7,33.7 1101.9,37.4 1112,41C1123.6,45.1 1134.8,49.3 1145,54C1155.8,59.2 1166.5,63.9 1176,69C1185.6,75.7 1196,80.7 1204,87C1214.7,92.9 1222.4,100.6 1231,106C1240.1,113.7 1249.2,120.1 1256,128L1279,151C1286.8,159.6 1293.1,168.7 1299,177Z" fill="#260000"/>
</g>
</svg>
